<?xml version="1.0" encoding="UTF-8"?><svg xmlns="http://www.w3.org/2000/svg" xmlns:xlink="http://www.w3.org/1999/xlink" height="450.3" preserveAspectRatio="xMidYMid meet" version="1.0" viewBox="-0.0 -0.4 298.7 450.3" width="298.7" zoomAndPan="magnify"><g id="change1_1"><path d="M296.34,370.75c-1.69-10.84-4.41-21.52-7.23-32.12c-2.94-11.08-6.13-22.09-9.13-33.15 c-3.23-11.91-5.48-24.33-10.99-35.47c-4.88-9.87-12.81-22.9-24.25-25.92c3.74-1.05,7.18-2.92,9.89-5.7 c0.01-0.01,0.02-0.02,0.03-0.03c0.02-0.03,0.04-0.05,0.05-0.08c0-0.01,0.01-0.02,0.01-0.03c0-0.01,0-0.02,0-0.04 c0-0.03,0-0.06-0.01-0.09c0-0.01-0.01-0.03-0.01-0.04c0-0.01-0.01-0.01-0.01-0.02c0-0.01-0.01-0.01-0.02-0.02c0,0,0,0-0.01-0.01 c-0.03-0.04-0.06-0.06-0.11-0.07c0,0,0,0,0,0c-0.01,0-0.02-0.01-0.02-0.01c-0.01,0-0.02-0.01-0.03-0.01c0,0-0.01,0-0.01,0 c-0.02,0-0.03,0-0.05,0.01c0,0-0.01,0-0.01,0c0,0-0.01,0-0.01,0c-2.04,0.46-4.18,0.62-6.29,0.46c-3.94-0.72-7.42-3.28-8.97-7.37 c-2.34-6.16,0.92-11.51,5-15.94c3.7-4.01,8.76-9.16,8.61-14.76h0c1.71,6.47,0.67,13.37-2.95,19.11c-0.16,0.19-0.33,0.38-0.49,0.57 c-0.02,0.03-0.04,0.05-0.07,0.08c-0.14,0.16-0.27,0.31-0.41,0.47c-0.06,0.07-0.07,0.16-0.05,0.23c0.02,0.1,0.09,0.19,0.2,0.18 c0.02,0,0.05,0,0.07-0.01c0.02-0.01,0.03-0.01,0.05-0.02c0.07-0.03,0.14-0.06,0.22-0.09c0.05-0.02,0.1-0.04,0.15-0.06 c2.9-1.17,5.53-2.87,7.92-4.89c12.51-7.64,24.78-17.94,24.61-33.65c-0.18-17.24-16.71-28.52-22.59-43.65 c-0.88-2.25-1.58-4.53-2.15-6.84c0.02-0.01,0.04-0.02,0.06-0.03c0.25-0.11,0.07-0.46-0.17-0.43c-1.85-7.66-2.26-15.56-2.54-23.5 c0.02-0.01,0.04-0.01,0.05-0.01c0.27-0.08,0.18-0.48-0.07-0.46c-0.23-6.66-0.4-13.33-1.27-19.89c0.03-0.02,0.06-0.03,0.09-0.05 c0.23-0.14,0.07-0.48-0.15-0.44c-0.25-1.81-0.56-3.62-0.93-5.41c-2.12-10.03-6.23-19.73-11.44-28.72c0.02-0.02,0.04-0.03,0.05-0.05 c0.2-0.2-0.08-0.5-0.29-0.36c-2.65-4.54-5.58-8.9-8.69-13.02c-4.33-5.75-9.33-11.51-14.98-16.47c0.23-0.2-0.11-0.54-0.34-0.34 c-0.01,0.01-0.02,0.01-0.03,0.02c-6.81-5.9-14.55-10.62-23.19-12.73c-9.83-2.71-19.52-6.07-29.51-8.14 c-0.1-0.09-0.19-0.18-0.29-0.26c-0.16-0.14-0.36-0.02-0.4,0.13c-1-0.2-1.99-0.39-3-0.56c-7.67-1.31-15.34-1.44-22.91-0.22 c-0.04-0.04-0.09-0.08-0.13-0.12c-0.17-0.18-0.42,0.01-0.4,0.21c-2.54,0.43-5.07,1.01-7.58,1.75c-8.92,2.62-17.51,6.99-24.46,13.22 c-0.84,0.75-1.64,1.56-2.42,2.38c-0.02-0.01-0.04-0.02-0.06-0.03c-0.25-0.15-0.47,0.21-0.27,0.38c-3.88,4.17-7.13,9.06-10.28,13.73 c-2.01,2.98-3.72,6.05-5.18,9.21c-0.18-0.08-0.43,0.11-0.31,0.33c0.03,0.05,0.06,0.1,0.09,0.15c-2.14,4.72-3.74,9.65-4.99,14.84 c-0.7,2.89-1.53,5.73-2.48,8.53c-0.26-0.06-0.46,0.31-0.19,0.42c0.01,0.01,0.03,0.01,0.04,0.02c-2.46,7.18-5.67,14.1-9.2,20.82 c-0.02-0.01-0.03-0.01-0.05-0.02c-0.27-0.1-0.39,0.29-0.17,0.43c-0.44,0.84-0.89,1.69-1.35,2.52 c-10.57,19.51-24.6,37.56-31.11,59.03c-3.08,10.15-4.61,21.41-1.89,31.82c2.13,8.18,6.99,15.99,15.34,18.75 c0.08,0.05,0.16,0.11,0.24,0.16c0.11,0.07,0.21,0.03,0.28-0.04c0.09-0.06,0.13-0.17,0.04-0.28c-0.23-0.31-0.45-0.63-0.67-0.95 c-3.9-6.98-2.97-19.1,4.83-22.85c0.03,0.06,0.1,0.1,0.17,0.11c-2.71,5.53-3.56,11.85-2.18,17.94c1.94,8.54,8.82,14.73,11.32,23.02 c1.63,5.4,1.08,10.65-2.88,14.84c-2.47,2.61-5.13,4.6-6.49,8.05c-0.22,0.55-0.39,1.12-0.54,1.7c-6.21,1.86-11.97,4.85-16.21,9.88 c-2.48,2.94-4.24,6.44-6.14,9.76c-2.26,3.95-4.48,7.92-6.67,11.9C16.93,287.88,8.75,303.53,0,318.88v0.96v16.37v0.89v112.85h3.62 h0.5c4.2-13.06,8.54-26.07,12.75-39.12c0.84,13.1,2.47,26.13,4.57,39.12h0.48h25.73h0.49h115.98h0.66h54.78h0.57 c8.99-13.45,16.5-27.87,22.97-42.7c0.03,0.01,0.06,0.02,0.11,0.02c11-0.16,22.01-1.07,32.86-2.95c7.72-1.34,17.36-3.43,20.02-11.98 c0.11-0.35,0.2-0.69,0.28-1.04c0,0,0,0,0,0C298.7,384.95,297.35,377.23,296.34,370.75z M253.8,160.24 c-0.59-1.49-1.24-2.94-1.97-4.36C252.56,157.3,253.21,158.75,253.8,160.24z M250.59,153.65c-0.57-0.96-1.18-1.9-1.84-2.81 C249.41,151.75,250.02,152.69,250.59,153.65z M204.58,243.77c-0.34,0.03-0.67,0.04-1.01,0.05 C203.91,243.81,204.25,243.79,204.58,243.77C204.58,243.77,204.58,243.77,204.58,243.77z M260.33,256.59 C260.33,256.59,260.33,256.59,260.33,256.59C260.33,256.59,260.32,256.59,260.33,256.59C260.32,256.59,260.32,256.59,260.33,256.59 C260.33,256.59,260.33,256.59,260.33,256.59z M220.3,138.86c-2.93-2.52-4.81-6.43-6.05-10.3 C215.5,132.43,217.37,136.34,220.3,138.86z M200,62.95C200,62.95,200,62.95,200,62.95C200,62.95,200,62.95,200,62.95 C200,62.95,200,62.95,200,62.95z M200.8,243.74c-0.98-0.09-1.95-0.25-2.91-0.47C198.85,243.49,199.82,243.65,200.8,243.74z M113.8,174c0.08,0.08,0.16,0.17,0.24,0.26C113.96,174.18,113.88,174.09,113.8,174C113.8,174,113.79,174,113.8,174z M113.44,173.62 c0,0-0.01,0-0.01,0c-0.26-0.27-0.51-0.56-0.77-0.83C112.92,173.07,113.18,173.35,113.44,173.62z M111.66,83.03 c-0.01,0.01-0.02,0.01-0.03,0.02l0,0C111.64,83.04,111.65,83.04,111.66,83.03z M108.42,84.74l-0.04,0.04 c-0.23,0.11-0.46,0.21-0.69,0.31C107.93,84.97,108.17,84.86,108.42,84.74z M105.17,101.8C105.17,101.8,105.17,101.8,105.17,101.8 c-0.69,0.66-1.39,1.3-2.1,1.93C103.78,103.1,104.48,102.45,105.17,101.8z M103.21,160.45C103.21,160.45,103.21,160.45,103.21,160.45 L103.21,160.45C103.21,160.45,103.21,160.45,103.21,160.45z M99.56,216.54c-0.01,0-0.02,0-0.02,0c0,0,0,0,0,0 C99.54,216.54,99.55,216.54,99.56,216.54z M99.08,216.42C99.07,216.42,99.07,216.42,99.08,216.42c-0.03,0-0.05-0.02-0.07-0.02 C99.03,216.4,99.05,216.41,99.08,216.42z M94.35,141.08C94.35,141.08,94.35,141.08,94.35,141.08 C94.35,141.08,94.35,141.08,94.35,141.08L94.35,141.08z M90.49,112.88L90.49,112.88C90.49,112.88,90.49,112.88,90.49,112.88 C90.49,112.88,90.49,112.88,90.49,112.88z M69.89,260.41c-0.78-0.01-1.55-0.07-2.32-0.19C68.34,260.34,69.11,260.41,69.89,260.41z M191.61,378.78c-0.42,0.04-0.94-0.24-1.22-0.49c-0.3-0.27-0.52-0.63-0.75-0.97c1.26-2.09,2.64-4.11,4.12-6.07 C193.18,373.81,192.47,376.32,191.61,378.78z" fill="#FC4C53"/></g><g id="change2_1"><path d="M127.76,222.8c-3.07-2.51-6.17-5-9.4-7.23c1.82-0.29,3.52-0.19,4.98,1.18c0.88,0.83,1.52,2,2.22,2.98 C126.29,220.77,127.02,221.78,127.76,222.8z M167.73,115.69L167.73,115.69l0,0.01C167.73,115.7,167.73,115.69,167.73,115.69z M90.46,116.82c-0.01-0.41-0.01-0.82-0.01-1.23c0-0.9,0-1.81,0.03-2.72c0,0,0,0,0,0c0.01,0,0.01,0,0.02-0.01 c0.04-0.01,0.07-0.04,0.09-0.06c0.99-0.58,1.96-1.19,2.92-1.81c0.22-0.15,0.45-0.29,0.67-0.44c0.82-0.54,1.62-1.1,2.42-1.67 c0.15-0.11,0.3-0.21,0.45-0.32c0.94-0.68,1.86-1.38,2.76-2.11c0.13-0.1,0.26-0.21,0.39-0.32c0.77-0.62,1.53-1.26,2.27-1.91 c0.2-0.17,0.39-0.34,0.59-0.52c0.71-0.63,1.41-1.27,2.1-1.93c1.56,3.9,4.58,5.02,4.58,5.02c-0.22-0.21-0.56,0.13-0.34,0.34 c7.38,6.9,17.83,8.3,26.8,3.64c0.13-0.07,0.14-0.21,0.08-0.31c7.05-4.97,7.9-10.57,7.23-14.62c0.02,0,0.04,0.01,0.06,0.01 c0.02,0,0.03,0,0.05-0.01c0,0,0,0,0,0c0.08-0.01,0.15-0.07,0.17-0.17c0-0.01,0-0.02,0-0.03c0-0.01,0-0.01,0-0.02 c-0.72-9.94-12.15-15.82-20.79-17.8c0.45-0.85,0.88-1.71,1.3-2.57c0.88-1.81,1.75-3.64,2.61-5.47c0.03,0.02,0.07,0.03,0.11,0.03 c5.6,0.06,11.21,0.1,16.81,0.16c0.19,0,0.33-0.27,0.17-0.4c-2.18-1.87-4.35-3.81-7.19-4.5c-0.57-0.14-1.16-0.26-1.75-0.36 c-0.33-0.06-0.67-0.09-1.01-0.14c-0.26-0.03-0.52-0.08-0.79-0.11c-0.41-0.04-0.81-0.06-1.22-0.08c-0.2-0.01-0.4-0.03-0.59-0.03 c-0.4-0.01-0.8,0.01-1.19,0.03c-0.18,0.01-0.37,0-0.55,0.01c-0.01-0.08-0.06-0.15-0.12-0.19c0.35-0.71,0.71-1.42,1.07-2.13 c0.04-0.07,0.08-0.15,0.11-0.22c0.32-0.64,0.65-1.27,0.99-1.9c0.08-0.14,0.16-0.28,0.23-0.43c0.3-0.56,0.61-1.12,0.92-1.68 c0.11-0.2,0.23-0.39,0.34-0.58c0.29-0.5,0.57-1,0.87-1.49c0.15-0.26,0.31-0.5,0.47-0.76c0.26-0.43,0.52-0.86,0.8-1.28 c0.2-0.31,0.41-0.61,0.62-0.92c0.24-0.36,0.48-0.73,0.73-1.08c0.27-0.38,0.55-0.75,0.82-1.13c0.2-0.27,0.4-0.55,0.6-0.83 c0.49-0.64,0.99-1.28,1.52-1.9c0.21-0.25,0.41-0.49,0.63-0.73c0.09-0.1,0.19-0.21,0.28-0.31c0.12-0.14,0.24-0.28,0.37-0.41 c0.15-0.16,0.3-0.32,0.45-0.48c0.07-0.07,0.14-0.15,0.21-0.22c0.18-0.19,0.36-0.37,0.54-0.56c0.05-0.05,0.09-0.09,0.13-0.14 c0.2-0.21,0.41-0.41,0.62-0.61c0.02-0.02,0.05-0.05,0.07-0.07c0.23-0.22,0.47-0.44,0.7-0.65c0,0,0,0,0,0 c6.21-5.64,14.11-8.9,21.8-2.9c0,0,0,0,0,0c-0.01,0.03-0.02,0.06-0.03,0.08c-0.11,0.29,0.35,0.41,0.46,0.13c0,0,0,0,0,0c0,0,0,0,0,0 c0.5-0.14,1-0.26,1.49-0.37c0.16-0.03,0.32-0.06,0.48-0.09c0.33-0.06,0.67-0.12,1-0.17c0.18-0.03,0.37-0.05,0.55-0.07 c0.31-0.04,0.61-0.07,0.91-0.09c0.19-0.01,0.37-0.03,0.56-0.04c0.3-0.02,0.6-0.02,0.91-0.02c0.17,0,0.35,0,0.52,0 c0.33,0.01,0.67,0.02,1,0.05c0.13,0.01,0.27,0.01,0.4,0.02c0.46,0.04,0.92,0.09,1.37,0.16c0.09,0.01,0.17,0.03,0.25,0.05 c0.37,0.06,0.73,0.13,1.09,0.21c0.16,0.04,0.32,0.08,0.48,0.12c0.28,0.07,0.57,0.14,0.85,0.22c0.17,0.05,0.35,0.1,0.52,0.16 c0.27,0.08,0.53,0.17,0.79,0.27c0.17,0.06,0.34,0.12,0.52,0.19c0.26,0.1,0.53,0.21,0.79,0.32c0.16,0.07,0.32,0.13,0.48,0.21 c0.29,0.13,0.58,0.27,0.87,0.42c0.12,0.06,0.24,0.12,0.36,0.18c0.4,0.21,0.79,0.42,1.18,0.65c0.14,0.08,0.28,0.17,0.42,0.26 c0.25,0.15,0.5,0.31,0.75,0.47c0.17,0.11,0.34,0.23,0.51,0.34c0.21,0.15,0.43,0.29,0.64,0.45c0.18,0.13,0.35,0.26,0.53,0.39 c0.2,0.15,0.4,0.3,0.6,0.46c0.18,0.14,0.35,0.28,0.53,0.42c0.19,0.16,0.38,0.32,0.57,0.48c0.17,0.15,0.35,0.3,0.52,0.45 c0.19,0.17,0.37,0.34,0.56,0.51c0.32,0.29,0.63,0.59,0.94,0.9c0.16,0.16,0.33,0.32,0.49,0.49c0.19,0.19,0.38,0.39,0.57,0.59 c0.14,0.15,0.28,0.29,0.42,0.44c0.19,0.21,0.38,0.42,0.56,0.63c0.13,0.14,0.26,0.29,0.38,0.44c0.19,0.22,0.38,0.44,0.56,0.67 c0.11,0.14,0.23,0.28,0.34,0.41c0.19,0.24,0.38,0.47,0.57,0.72c0.09,0.12,0.18,0.23,0.27,0.35c0.98,1.27,1.9,2.59,2.76,3.94 c0.05,0.08,0.1,0.16,0.15,0.24c0.19,0.31,0.38,0.61,0.57,0.92c0.05,0.09,0.11,0.17,0.16,0.26c0.19,0.31,0.37,0.62,0.55,0.94 c0.04,0.07,0.08,0.15,0.13,0.22c0.19,0.33,0.38,0.67,0.56,1c0,0,0,0,0,0c-0.12,0.05-0.19,0.18-0.1,0.32 c0.43,0.61,0.84,1.24,1.23,1.87c0,0,0,0,0,0c0.33,0.66,0.63,1.31,0.93,1.97c0.05,0.1,0.09,0.21,0.14,0.31 c0.28,0.64,0.56,1.27,0.81,1.9c0.92,2.27,1.72,4.58,2.42,6.9c-9.39-1.81-20.84-3.46-28.86,2.87c-0.17,0.14-0.02,0.4,0.17,0.4 c10.08,0.41,20.13,1.2,30.16,2.22c1.06,4.45,1.83,8.97,2.49,13.52c-13.25-2.71-31.51-7.36-40.06,6.56 c-0.09,0.13-0.02,0.25,0.08,0.31c0,0-4.5,6.82-0.54,16.06c6.99,7.29,17.36,9.25,26.56,5.09c0.14-0.06,0.15-0.2,0.09-0.3h0 c0,0,14.46-7.47,9.29-23.38c1.82,0.95,3.62,1.95,5.54,2.7c1.07,8.28,2.06,16.58,3.98,24.67c0.07,0.31,0.15,0.62,0.23,0.94 c0.05,0.19,0.1,0.39,0.15,0.58c0.03,0.12,0.06,0.24,0.1,0.37c0.07,0.25,0.14,0.51,0.22,0.77c0.02,0.06,0.04,0.13,0.05,0.19 c0.09,0.29,0.18,0.59,0.27,0.88c0.01,0.03,0.02,0.05,0.02,0.08c1.24,3.87,3.12,7.78,6.05,10.3c-0.07,0.07-0.09,0.18-0.03,0.28 c-0.35-0.04-0.71-0.09-1.05-0.15c0,0-0.01,0-0.01,0c-0.34-0.06-0.68-0.13-1.02-0.21c-0.02,0-0.03-0.01-0.05-0.01 c-0.32-0.08-0.64-0.17-0.95-0.26c-0.04-0.01-0.08-0.03-0.12-0.04c-0.29-0.09-0.58-0.19-0.86-0.3c-0.07-0.03-0.14-0.06-0.21-0.09 c-0.25-0.1-0.51-0.21-0.76-0.32c-0.11-0.05-0.21-0.11-0.32-0.16c-0.21-0.1-0.42-0.21-0.62-0.32c-0.16-0.09-0.32-0.2-0.48-0.29 c-0.15-0.09-0.29-0.17-0.44-0.27c-0.3-0.2-0.6-0.42-0.9-0.64c0,0-0.01,0-0.01-0.01c-0.11-0.08-0.29-0.07-0.36,0.08 c-0.02,0.02-0.03,0.05-0.03,0.08c-0.13,0.42-0.27,0.84-0.41,1.26c-0.18-0.04-0.39,0.15-0.26,0.34c0.03,0.05,0.07,0.1,0.1,0.15 c0,0,0,0,0,0c-2.83,8.68-7.07,16.76-12.6,23.88c-0.17-0.1-0.44,0.02-0.35,0.24c0.02,0.05,0.03,0.09,0.05,0.14c0,0,0,0,0,0 c-0.5,0.64-1.01,1.26-1.53,1.89c-0.01,0.02-0.03,0.03-0.04,0.05c-1.46,1.73-2.99,3.39-4.61,4.99c-0.16,0.15-0.31,0.31-0.46,0.46 c-0.38,0.37-0.76,0.72-1.15,1.08c-0.32,0.3-0.65,0.6-0.98,0.9c-0.33,0.3-0.66,0.59-0.99,0.88c-0.43,0.38-0.87,0.74-1.32,1.11 c-0.27,0.22-0.53,0.44-0.8,0.66c-0.73,0.59-1.47,1.16-2.23,1.72c-5.92,4.38-12.47,7.91-19.37,10.5c-3.54,1.33-7.11,2.47-10.62,3.89 c-4.59,1.86-9.05,3.16-14.05,2.26c-8.03-1.16-14.08-7.84-20.17-12.7c-2.18-1.74-4.24-3.61-6.2-5.59c-0.01-0.02-0.03-0.03-0.04-0.04 c-0.08-0.08-0.16-0.17-0.24-0.26c0.13-0.13,0.01-0.43-0.24-0.4c-0.04,0.01-0.08,0.01-0.12,0.02c-0.26-0.27-0.52-0.55-0.78-0.83 c-0.52-0.56-1.04-1.11-1.55-1.68c-0.33-0.38-0.65-0.77-0.98-1.15c-0.47-0.55-0.94-1.1-1.4-1.67c-0.4-0.5-0.79-1.02-1.18-1.54 c-0.35-0.46-0.72-0.92-1.06-1.39c-0.73-1-1.44-2.02-2.12-3.05c-0.32-0.48-0.61-0.97-0.92-1.46c0.22-0.17,0-0.54-0.25-0.4 c0,0,0,0,0,0c-0.45-0.73-0.89-1.46-1.32-2.2c-0.04-0.07-0.08-0.13-0.12-0.2c-2.16-3.74-4.01-7.64-5.57-11.66 c-0.06-0.16-0.12-0.32-0.18-0.47c-0.27-0.7-0.52-1.41-0.77-2.12c-0.06-0.17-0.12-0.34-0.18-0.52c-0.25-0.73-0.5-1.47-0.73-2.21 c0,0,0,0,0,0c0.03-0.02,0.05-0.05,0.08-0.07c0.19-0.17-0.02-0.43-0.22-0.39h0c-0.33-1.08-0.64-2.17-0.93-3.26c0,0,0-0.01,0-0.01 c-0.29-1.09-0.55-2.19-0.8-3.29c0.02-0.01,0.04-0.02,0.05-0.03c0.24-0.13,0.07-0.47-0.15-0.44c-0.2-0.93-0.39-1.87-0.56-2.81 c-0.01-0.05-0.02-0.11-0.03-0.16c-0.16-0.9-0.31-1.81-0.44-2.72c-0.01-0.09-0.03-0.18-0.04-0.27c-0.13-0.89-0.24-1.78-0.34-2.68 c-0.01-0.09-0.02-0.18-0.03-0.28c-0.1-0.91-0.18-1.83-0.25-2.74c0.01,0,0.02-0.01,0.03-0.01c0.27-0.07,0.19-0.46-0.06-0.46 c0,0,0,0,0,0c-0.08-1.16-0.13-2.32-0.17-3.49C90.48,117.59,90.47,117.2,90.46,116.82z M169.6,94.09c2.1-2.37,4.88-3.82,8.03-4.15 c0.3-0.03,0.3-0.51,0-0.47c-3.27,0.35-6.18,1.83-8.36,4.29C169.06,93.98,169.4,94.32,169.6,94.09z M144.33,90.21 c0.1,0.29,0.56,0.16,0.46-0.13c-1.1-3.24-3.37-5.85-6.45-7.36c-0.27-0.13-0.51,0.28-0.24,0.41 C141.06,84.59,143.27,87.08,144.33,90.21z M142.96,131.67c4.9-3.91,11.65-2.72,14.93,2.61c0.16,0.26,0.57,0.02,0.41-0.24 c-3.47-5.62-10.52-6.83-15.68-2.71C142.39,131.53,142.73,131.86,142.96,131.67z M156.4,138.47c-1.22-0.58-2.67-0.29-3.55,0.74 c-0.2,0.23,0.14,0.57,0.34,0.34c0.74-0.87,1.94-1.16,2.98-0.67C156.43,139.01,156.67,138.6,156.4,138.47z M147,138.1 c-0.46-1.04-1.46-1.7-2.59-1.77c-0.3-0.02-0.3,0.46,0,0.47c0.97,0.06,1.79,0.65,2.18,1.53C146.72,138.62,147.12,138.38,147,138.1z M125.09,153.78c2.21,9.11,14.53,13.62,22.68,14.72c6.92,0.94,19.32,0.44,22.23-7.55c0.04-0.12-0.05-0.26-0.17-0.29 c-12.37-2.95-24.89-5.12-37.52-6.5c-0.05-0.02-0.1-0.03-0.15-0.02c-2.28-0.25-4.56-0.48-6.85-0.67c-0.13-0.01-0.2,0.07-0.22,0.16 C125.08,153.68,125.08,153.73,125.09,153.78z M184.58,176.46c-6.26,4.61-13.2,8.26-20.51,10.88c-7.54,2.7-15.52,7.2-23.74,5.72 c-7.9-1.15-13.32-7.39-19.36-12.03c-2.37-1.82-4.61-3.79-6.73-5.9c1.75,10.37,2.26,20.95,1.84,31.45c2.16-0.08,4.32-0.15,6.48-0.17 c3.2-0.02,6.07,0.41,8.38,2.8c2.78,2.88,4.85,6.63,7.13,9.91c2.78,3.99,5.55,7.98,8.33,11.96c1.95,2.6,3.37,5.54,3.4,8.85 c0.03,3.27-1.22,6.66-1.79,9.87c-1.28,7.2-2.1,14.48-3.51,21.65c9.53-16.56,23.4-30.49,39.39-40.88c-1.11-2.58-1.8-5.28-2.15-8.05 c-1.34-7.29-1.99-14.66-1.51-22.08C180.73,192.31,182.5,184.33,184.58,176.46z M262.62,346.72c0,0.01,0,0.01-0.01,0.01 c-4.49,20.35-11,40.7-19.52,60.1c-0.08,0.05-0.11,0.14-0.1,0.23c-6.61,15.01-14.42,29.45-23.42,42.88h-54.78 c-12.69-12.89-19.04-30.39-23.68-47.56c-5.31-19.64-8.73-39.85-12.79-59.77c-2.34-11.48-4.68-22.96-7.02-34.44 c0.41,0.27,0.82,0.55,1.25,0.8c0.26,0.16,0.5-0.25,0.24-0.41c-6.33-3.78-11.37-9.36-14.27-16.16c-2.32-5.43-2.99-11.24-3.13-17.08 c0.06-1.7,0.06-3.41-0.01-5.15c0.01-0.52,0.02-1.04,0.03-1.56c0.18-9.11,2.41-28.17-9.58-31.44c-0.29-0.08-0.42,0.38-0.13,0.46 c0.27,0.07,0.53,0.16,0.79,0.25c-0.02,0.03-0.04,0.06-0.05,0.1c-1.1,4.99-9.29,8.61-13.86,6.39c3.08-9.1,9.18-15.69,16.29-21.89 c4.74-1.44,7.49,3.89,9.79,7.02c1.9,2.58,3.8,5.16,5.7,7.75c0.18,0.24,0.59,0.01,0.41-0.24c-2.82-3.83-5.54-7.75-8.46-11.49 c-1.94-2.48-4.33-4.51-7.62-3.48c-0.04,0.01-0.07,0.03-0.09,0.05c0,0-0.01,0-0.01,0.01c-1.5,1.31-2.95,2.63-4.34,3.99 c3.05-5.43,7.38-12.38,14.55-8.39c2.87,1.6,5.33,4.18,7.82,6.31c2.69,2.31,5.39,4.62,8.09,6.93c0.23,0.2,0.57-0.14,0.34-0.34 c-3.8-3.26-7.61-6.52-11.41-9.78c-2.28-1.94-4.74-4.35-7.87-4.71c-1.07-0.12-2.06-0.05-2.97,0.18c2.17-2.07,4.68-3.94,7.84-3.83 c3.55,0.13,6.5,2.92,9.13,4.95c4.81,3.71,9.61,7.43,14.42,11.15c0.24,0.18,0.58-0.15,0.34-0.34c-1.8-1.39-3.58-2.84-5.37-4.31 c-1.55-2.27-3.1-4.64-4.82-6.78c-1.78-2.21-3.85-2.47-6.52-1.97c-0.74-0.5-1.49-0.99-2.24-1.46c-5.16-3.21-9.72-1.1-13.69,2.81 c-0.16,0.03-0.32,0.06-0.49,0.07c-0.05,0.01-0.1,0.01-0.15,0.01c-0.13,0.01-0.27,0.02-0.4,0.02c-0.05,0-0.1,0-0.15,0 c-0.17,0-0.33-0.01-0.5-0.02c-0.02,0-0.03,0-0.05,0c-0.19-0.02-0.38-0.05-0.57-0.08c-0.01,0-0.02,0-0.02-0.01 c0.05-0.24-0.3-0.41-0.43-0.17c-0.01,0.02-0.02,0.04-0.03,0.05c-0.02-0.01-0.05-0.02-0.07-0.02c-0.12-0.04-0.24-0.08-0.36-0.13 c-0.04-0.02-0.08-0.04-0.12-0.06c-0.1-0.05-0.2-0.11-0.29-0.17c-0.03-0.02-0.07-0.04-0.1-0.07c-0.1-0.07-0.18-0.15-0.26-0.24 c-0.01-0.02-0.03-0.03-0.05-0.05c-0.09-0.1-0.16-0.22-0.21-0.34c-0.01-0.03-0.01-0.06-0.02-0.08c-0.03-0.1-0.06-0.2-0.06-0.3 c0-0.05,0-0.1,0-0.14c0-0.1,0.02-0.2,0.04-0.3c0.01-0.06,0.03-0.11,0.05-0.17c0.04-0.11,0.09-0.23,0.15-0.35 c0.03-0.06,0.05-0.11,0.08-0.17c0.11-0.18,0.23-0.37,0.4-0.58c0.15-0.18,0.31-0.35,0.49-0.52c0.04-0.04,0.09-0.08,0.14-0.12 c0.18-0.16,0.36-0.31,0.56-0.46c0,0,0,0,0.01,0c0.2-0.15,0.41-0.3,0.63-0.45c0.06-0.04,0.11-0.08,0.17-0.11 c0.2-0.13,0.4-0.27,0.6-0.4c0.1,0.16,0.42,0.12,0.44-0.13c0-0.05,0-0.11,0.01-0.16c0,0,0,0,0,0c0.16-0.1,0.31-0.2,0.46-0.3 c1.75-1.19,4.12-3.03,6.3-3.21c4.07-0.14,8.15-0.28,12.22-0.41c2.09-0.07,4.34-0.28,6.39,0.25c2.54,0.66,4.13,2.4,5.6,4.43 c4.7,6.46,9.14,13.13,13.71,19.69c2.68,3.56,3.83,7.28,2.92,11.7c-0.69,3.34-1.39,6.66-1.93,10.03c-1.06,6.56-1.85,13.17-3.22,19.68 c-0.01,0.04-0.01,0.07,0,0.11c0,0.01,0,0.01,0,0.02c8.46,44.09,27.14,85.99,54.38,121.68c7.52,9.85,16.09,20.04,17.05,32.93 c0.02,0.3,0.5,0.31,0.47,0c-0.77-10.28-6.36-18.97-12.4-27.01c-4.33-5.77-8.66-11.51-12.79-17.4c0.55-1.29,1.05-2.59,1.51-3.91 c0.04-0.05,0.06-0.11,0.06-0.17c0.99-2.82,1.79-5.69,2.41-8.62c0,0,0-0.01,0-0.01c8.05-10.31,19.07-18.56,31.41-22.72 C237.71,343.64,250.61,343.49,262.62,346.72z M120.66,239.53c-2.08,0.16-3.95,1.01-5.42,2.48c-0.22,0.22,0.12,0.55,0.34,0.34 c1.38-1.39,3.13-2.2,5.08-2.34C120.96,239.99,120.97,239.51,120.66,239.53z M132.32,234.56c-2.42,0.43-4.62,1.4-6.57,2.89 c-0.24,0.18,0,0.6,0.24,0.41c1.91-1.47,4.08-2.43,6.45-2.85C132.74,234.96,132.62,234.5,132.32,234.56z M142.1,232.37 c-1.79,0.43-3.57,0.85-5.36,1.28c-0.3,0.07-0.17,0.53,0.13,0.46c1.79-0.43,3.57-0.85,5.36-1.28 C142.53,232.76,142.4,232.3,142.1,232.37z M105.11,279.44c-0.98,10.05-4.09,19.53-7.88,29.16c-3.55,9.03-7.05,18.08-10.5,27.15 c4.15-5.53,9.83-9.37,15.76-12.88c6.36-3.76,13.76-9.42,15.81-16.87C110.28,299.45,105.96,289.98,105.11,279.44z M0,337.1v112.85 h3.62c4.33-13.45,8.81-26.85,13.13-40.29c0.01-0.03,0.03-0.06,0.04-0.08c-0.34-5.65-0.54-11.32-0.56-17.01 c0-0.05,0.01-0.08,0.03-0.11c-0.63-9.8,0-19.62,2.78-29.3c0.45-1.57,0.95-3.12,1.49-4.66c-0.03,0-0.07-0.02-0.1-0.04 C12.35,352.82,5.28,345.43,0,337.1z" fill="#FFAD94"/></g><g id="change3_1"><path d="M167.69,115.83c0.02,0.05,0.04,0.1,0.06,0.15C167.7,115.93,167.68,115.88,167.69,115.83z M194.4,120.77 L194.4,120.77c0,0,14.46-7.47,9.29-23.38c-1.24-0.64-2.48-1.26-3.8-1.74c-0.66-0.25-1.34-0.47-2.01-0.69 c3.17,2.52,5.2,6.4,5.2,10.76c0,7.59-6.15,13.74-13.74,13.74c-7.59,0-13.74-6.15-13.74-13.74c0-6.59,4.64-12.09,10.82-13.42 c0.01,0,0.02,0,0.02-0.01c-0.11-0.01-0.22-0.02-0.32-0.03c-0.22-0.02-0.44-0.04-0.65-0.05c-0.27-0.02-0.54-0.03-0.81-0.05 c-0.21-0.01-0.42-0.02-0.63-0.02c-0.3-0.01-0.59,0-0.89,0c-0.17,0-0.35,0-0.52,0.01c-0.45,0.02-0.9,0.05-1.34,0.09 c-0.14,0.01-0.29,0.04-0.43,0.06c-0.31,0.04-0.62,0.08-0.93,0.13c-0.18,0.03-0.35,0.07-0.53,0.1c-0.27,0.05-0.54,0.11-0.81,0.18 c-0.18,0.04-0.36,0.09-0.54,0.14c-0.26,0.07-0.53,0.16-0.78,0.24c-0.17,0.06-0.34,0.11-0.51,0.17c-0.28,0.1-0.56,0.22-0.84,0.34 c-0.14,0.06-0.28,0.11-0.41,0.18c-0.4,0.19-0.8,0.39-1.19,0.62c-0.07,0.04-0.13,0.09-0.2,0.13c-0.33,0.19-0.65,0.4-0.96,0.62 c-0.13,0.09-0.26,0.19-0.39,0.29c-0.25,0.18-0.49,0.37-0.73,0.57c-0.14,0.12-0.28,0.24-0.41,0.36c-0.23,0.2-0.45,0.42-0.67,0.64 c-0.13,0.13-0.26,0.26-0.39,0.4c-0.23,0.25-0.46,0.51-0.68,0.78c-0.11,0.13-0.21,0.25-0.32,0.38c-0.32,0.41-0.64,0.83-0.94,1.28 c-0.08,0.13-0.23,0.13-0.33,0.07c0,0-4.44,6.75-0.6,15.91c0-0.05,0.02-0.09,0.04-0.13l0-0.02l0.01,0.01 c0.08-0.11,0.23-0.17,0.35-0.04c6.84,7.13,16.98,9.08,25.99,5.02C194.21,120.6,194.34,120.67,194.4,120.77z M180.53,108.55 c0,1.96,1.59,3.55,3.55,3.55c1.96,0,3.55-1.59,3.55-3.55c0-1.96-1.59-3.55-3.55-3.55C182.12,105.01,180.53,106.59,180.53,108.55z M187.72,103.56c0,3.7,3,6.71,6.71,6.71s6.71-3,6.71-6.71c0-3.7-3-6.71-6.71-6.71S187.72,99.86,187.72,103.56z M126.25,82.7 c-0.02,0-0.04-0.01-0.06-0.01c-0.83-0.17-1.67-0.31-2.5-0.44c-0.16-0.02-0.32-0.04-0.47-0.07c-0.82-0.11-1.63-0.21-2.43-0.28 c-0.6,1.03-1.22,2.04-1.86,3.04c0,0,0,0,0,0c2.11-1.39,4.62-2.21,7.31-2.25C126.24,82.7,126.25,82.7,126.25,82.7z M69.4,87.1 c0.13,0.05,0.27,0.09,0.4,0.14c0.87,0.33,1.76,0.63,2.65,0.9c0.27,0.08,0.55,0.16,0.82,0.24c0.64,0.18,1.28,0.36,1.92,0.51 c0.3,0.07,0.6,0.15,0.91,0.21c0.69,0.15,1.38,0.29,2.08,0.41c0.23,0.04,0.45,0.09,0.68,0.12c0.91,0.15,1.82,0.26,2.74,0.36 c0.22,0.02,0.44,0.03,0.67,0.05c0.71,0.06,1.41,0.11,2.12,0.14c0.32,0.01,0.63,0.02,0.95,0.03c0.64,0.02,1.29,0.02,1.93,0.01 c0.3,0,0.6-0.01,0.9-0.02c0.84-0.03,1.68-0.08,2.52-0.15c0.08-0.01,0.17-0.01,0.25-0.02c0.91-0.08,1.82-0.19,2.73-0.32 c0.3-0.04,0.6-0.1,0.89-0.14c0.63-0.1,1.26-0.21,1.88-0.34c0.32-0.06,0.65-0.13,0.97-0.2c0.65-0.14,1.29-0.3,1.93-0.47 c0.26-0.07,0.53-0.13,0.79-0.2c0.87-0.24,1.74-0.51,2.6-0.8c0.23-0.08,0.45-0.16,0.68-0.24c0.65-0.23,1.29-0.47,1.93-0.72 c0.31-0.12,0.62-0.25,0.92-0.38c2.51-1.06,4.94-2.32,7.24-3.78c0.25-0.16,0.49-0.32,0.74-0.48c0.72-0.47,1.43-0.96,2.12-1.47 c1.8-1.18,3.44-2.56,4.83-4.13c1.71-1.68,3.28-3.5,4.7-5.45c0.63-0.87,1.24-1.76,1.8-2.69c0.66-1.07,1.27-2.17,1.83-3.3 c0.06-0.12,0.13-0.23,0.18-0.36c0.02-0.04,0.02-0.09,0.02-0.13c0,0,0,0,0-0.01c-0.01-0.08-0.06-0.15-0.12-0.19 c-0.1-0.06-0.24-0.05-0.31,0.08c-0.64,1.32-1.35,2.6-2.12,3.83c-1.59,2.55-3.43,4.89-5.48,7.02c-0.06-0.01-0.13,0.01-0.19,0.07 c-0.2,0.25-0.41,0.49-0.63,0.73c-1.47,1.45-3.05,2.8-4.7,4.04c-3.93,2.59-8.6,4.23-13.08,5.1c-7.59,1.47-15.77-1.76-22.29-5.44 c-0.27-0.15-0.51,0.26-0.24,0.41c6.34,3.59,14.38,6.87,21.81,5.65c0.69-0.11,1.38-0.25,2.08-0.41c0.21-0.05,0.42-0.1,0.63-0.15 c0.51-0.12,1.03-0.25,1.54-0.4c0.21-0.06,0.43-0.12,0.64-0.18c1.48-0.44,2.96-0.96,4.39-1.59c-0.01,0.01-0.02,0.01-0.03,0.02l0,0 c-1.05,0.61-2.12,1.16-3.21,1.69l-0.04,0.04c-0.23,0.11-0.46,0.21-0.69,0.31c-0.41,0.19-0.83,0.38-1.25,0.56 c-0.37,0.16-0.74,0.31-1.11,0.46c-0.42,0.17-0.84,0.34-1.27,0.5c-0.38,0.14-0.77,0.27-1.15,0.4c-0.43,0.15-0.85,0.3-1.28,0.44 c-0.4,0.13-0.81,0.23-1.21,0.35c-0.5,0.14-1,0.29-1.51,0.42c-0.72,0.18-1.45,0.36-2.17,0.51c-0.39,0.08-0.79,0.14-1.18,0.22 c-0.45,0.08-0.91,0.17-1.36,0.24c-0.4,0.06-0.81,0.11-1.22,0.16c-0.45,0.06-0.9,0.12-1.36,0.17c-0.41,0.04-0.81,0.07-1.22,0.1 c-0.46,0.04-0.91,0.07-1.37,0.09c-0.4,0.02-0.81,0.03-1.21,0.04c-0.46,0.01-0.92,0.02-1.39,0.02c-0.4,0-0.8-0.01-1.2-0.02 c-0.47-0.01-0.94-0.03-1.4-0.06c-0.39-0.02-0.79-0.05-1.18-0.08c-0.48-0.04-0.95-0.09-1.43-0.14c-0.38-0.04-0.77-0.08-1.15-0.14 c-0.49-0.07-0.97-0.14-1.46-0.22c-0.37-0.06-0.73-0.12-1.1-0.19c-0.51-0.1-1.01-0.21-1.52-0.32c-0.34-0.08-0.68-0.15-1.01-0.23 c-0.56-0.14-1.11-0.3-1.67-0.46c-0.28-0.08-0.56-0.15-0.83-0.24c-0.83-0.26-1.65-0.54-2.46-0.84c-0.15-0.06-0.3-0.1-0.45-0.16 c-0.02-0.01-0.03-0.01-0.05-0.02c-0.27-0.1-0.39,0.29-0.17,0.43C69.37,87.09,69.38,87.1,69.4,87.1z M117.65,99.27 c0,1.96,1.59,3.55,3.55,3.55c1.96,0,3.55-1.59,3.55-3.55c0-1.96-1.59-3.55-3.55-3.55C119.24,95.72,117.65,97.31,117.65,99.27z M131.55,100.99c3.7,0,6.71-3,6.71-6.71s-3-6.71-6.71-6.71s-6.71,3-6.71,6.71S127.85,100.99,131.55,100.99z M136.3,110.49 c7.05-4.97,7.9-10.57,7.23-14.62c-0.08-0.01-0.15-0.05-0.18-0.15c-0.16-0.59-0.36-1.15-0.58-1.69c-0.08-0.19-0.17-0.36-0.25-0.54 c-0.16-0.34-0.31-0.69-0.49-1.01c-0.11-0.21-0.24-0.4-0.37-0.6c-0.17-0.28-0.34-0.55-0.52-0.82c-0.15-0.21-0.3-0.4-0.46-0.6 c-0.18-0.24-0.37-0.47-0.57-0.69c-0.17-0.2-0.36-0.39-0.54-0.58c-0.2-0.2-0.4-0.4-0.6-0.6c-0.2-0.19-0.41-0.37-0.62-0.54 c-0.21-0.18-0.42-0.35-0.64-0.52c-0.23-0.17-0.45-0.34-0.69-0.51c-0.22-0.15-0.44-0.3-0.66-0.44c-0.25-0.16-0.49-0.31-0.75-0.46 c-0.08-0.05-0.16-0.11-0.25-0.16c0.01,0.01,0.03,0.03,0.04,0.04c2.94,2.52,4.8,6.25,4.8,10.43c0,7.59-6.15,13.74-13.74,13.74 c-7.59,0-13.74-6.15-13.74-13.74c0-1.15,0.14-2.27,0.41-3.33c0,0,0,0,0,0c-0.73,0.92-1.48,1.81-2.25,2.7 c-0.15,0.17-0.3,0.34-0.45,0.51c-0.64,0.72-1.28,1.44-1.94,2.14c-0.16,0.17-0.31,0.33-0.46,0.5c-0.8,0.84-1.62,1.67-2.46,2.48 c-0.02,0.02-0.03,0.03-0.05,0.05c-0.12,0.11-0.24,0.22-0.35,0.33c0,0,0,0,0,0c1.56,3.9,4.58,5.02,4.58,5.02 c7.22,6.74,17.46,8.12,26.22,3.57C136.11,110.32,136.24,110.39,136.3,110.49z M150.53,157.17c-6-1.03-12.02-1.86-18.07-2.52 c0.34,5.42,10.77,5.5,14.82,6c4.49,0.56,12.6,2.56,16.17-0.97c-0.3-0.07-0.6-0.13-0.9-0.2 C158.56,158.63,154.55,157.86,150.53,157.17z M90.6,121.46c-0.13,0.03-0.27,0.07-0.4,0.1c-13.18,3.25-24.82,10.74-33.22,21.42 c-0.19,0.24,0.15,0.58,0.34,0.34c8.33-10.6,19.85-18.03,32.92-21.28c0.15-0.04,0.31-0.08,0.46-0.12h0c0.01,0,0.02-0.01,0.03-0.01 c0.27-0.07,0.19-0.46-0.06-0.46C90.64,121.46,90.63,121.46,90.6,121.46z M218.27,178.28c4.38-12.68,1.5-28.88-5.94-39.98 c-0.17-0.25-0.34-0.5-0.51-0.75c-0.04-0.06-0.09-0.09-0.15-0.1c-0.18-0.04-0.39,0.15-0.26,0.34c0.03,0.05,0.07,0.1,0.1,0.15 c0.24,0.35,0.48,0.7,0.71,1.05c7.14,10.98,9.86,26.77,5.59,39.15C217.71,178.45,218.17,178.57,218.27,178.28z M208.78,242.78 c-0.03,0-0.06,0-0.09,0.01c-1.3,0.41-2.69,0.56-4.1,0.51c-3.84-0.14-7.81-1.85-10.47-4.35c-4.09-3.84-6.21-9.57-7.69-14.83 c-2.08-7.39-2.62-15.09-1.72-22.64c0.09-0.72,0.18-1.44,0.3-2.15c0.52-3.31,1.3-6.58,2.37-9.78c0.1-0.29-0.36-0.41-0.46-0.13 c-1.33,3.99-2.24,8.11-2.72,12.27c-0.08,0.69-0.14,1.37-0.2,2.06c-0.67,8.35,0.41,16.82,3.34,24.75c1.72,4.65,4.16,9.59,8.44,12.39 c1.64,1.07,3.58,1.92,5.6,2.42c1.05,0.26,2.12,0.42,3.19,0.46c0,0,0,0,0,0c1.45,0.06,2.89-0.1,4.23-0.52 C209.08,243.17,209.01,242.8,208.78,242.78z M273.7,188.22c-1.03,7.28-4.56,14-8.95,19.81c-1.7,2.25-3.58,4.44-5.66,6.41 c-0.54,0.51-1.09,1-1.65,1.48c-2.39,2.02-5.02,3.72-7.92,4.89c-0.05,0.02-0.1,0.04-0.15,0.06c-0.07,0.03-0.14,0.06-0.22,0.09 c-0.02,0.01-0.03,0.01-0.05,0.02c-0.03,0.01-0.05,0.01-0.07,0.01c-0.11,0.01-0.19-0.08-0.2-0.18c-0.02-0.07-0.02-0.16,0.05-0.23 c0.14-0.15,0.27-0.31,0.41-0.47c0.02-0.03,0.04-0.05,0.07-0.08c0.16-0.19,0.33-0.38,0.49-0.57c0.62-0.74,1.22-1.5,1.81-2.27 c7.49-9.94,12.08-23.04,10.36-35.37c-0.04-0.3,0.42-0.43,0.46-0.13c1.86,13.29-3.48,27.43-11.94,37.69 c-0.21,0.26-0.42,0.51-0.64,0.76c0.5-0.21,0.99-0.44,1.47-0.69c0.7-0.35,1.38-0.74,2.05-1.16c1.24-0.77,2.43-1.64,3.56-2.58 c3.43-2.85,6.37-6.37,8.83-9.95c4.03-5.85,7.07-12.43,7.67-19.58c0.65-7.82-1.36-15.51-5.53-22.12 c-3.89-6.17-7.55-12.86-13.16-17.66c-2.68,0.81-5.45,1.36-8.23,1.62c0.38,0.43,0.75,0.87,1.1,1.32c0.05,0.07,0.1,0.13,0.15,0.2 c0.31,0.39,0.61,0.79,0.91,1.2c0.02,0.03,0.04,0.06,0.06,0.09c0.66,0.92,1.28,1.87,1.86,2.84l0,0c0.01,0.02,0.02,0.03,0.03,0.05 c0.41,0.69,0.8,1.4,1.17,2.12c0.01,0.01,0.01,0.02,0.02,0.03c0.73,1.41,1.38,2.87,1.97,4.36c0.02,0.05,0.04,0.11,0.06,0.16 c0.56,1.44,1.06,2.91,1.5,4.39c0.04,0.12,0.07,0.24,0.11,0.36c0.21,0.73,0.41,1.46,0.59,2.19c0,0.02,0.01,0.04,0.01,0.05 c0.17,0.69,0.33,1.38,0.47,2.07c0.04,0.17,0.07,0.34,0.11,0.52c0.15,0.71,0.28,1.41,0.4,2.12c0.44,2.53,0.68,5.05,0.73,7.55 c0.03,0.04,0.05,0.08,0.05,0.14c0.03,0.97-0.01,1.89-0.09,2.79c-0.27,5.98-1.75,11.8-4.64,17.3c-0.07,0.13-0.13,0.26-0.2,0.39 c-0.04,0.07-0.09,0.1-0.15,0.11h0c-0.17,0.03-0.36-0.15-0.26-0.35c0.15-0.27,0.28-0.55,0.42-0.82c2.03-4,3.32-8.16,3.94-12.42 c-1.12,3.41-3.1,6.33-5.47,9.04c-0.11,0.12-0.21,0.25-0.32,0.37c-4.13,4.63-9.33,8.67-13.2,13.52c-5.04,6.29-7.16,14.59-2.5,21.77 c2.34,3.6,6.04,5.73,10.08,6.59c0.88,0.19,1.77,0.31,2.67,0.38c2.11,0.16,4.25,0,6.29-0.46c0,0,0.01,0,0.01,0c0,0,0.01,0,0.01,0 c0.02-0.01,0.04-0.01,0.05-0.01c0,0,0.01,0,0.01,0c0.01,0,0.02,0.01,0.03,0.01c0.01,0,0.02,0,0.02,0.01c0,0,0,0,0,0 c0.05,0.01,0.08,0.04,0.11,0.07c0,0,0,0,0.01,0.01c0.01,0.01,0.01,0.01,0.02,0.02c0,0.01,0.01,0.01,0.01,0.02 c0.01,0.01,0.01,0.03,0.01,0.04c0.01,0.03,0.02,0.06,0.01,0.09c0,0.01,0,0.02,0,0.04c0,0.01,0,0.02-0.01,0.03 c-0.01,0.03-0.03,0.05-0.05,0.08c-0.01,0.01-0.02,0.02-0.03,0.03c-2.71,2.78-6.15,4.65-9.89,5.7c-0.31,0.09-0.63,0.17-0.94,0.25h0 c-3.27,0.79-6.74,0.97-10.14,0.59c-0.01,0-0.03,0-0.04-0.01c-1.44-0.16-2.87-0.43-4.27-0.79c-4.28-1.1-8.26-3.11-11.33-5.93 c-5.26-4.83-8.28-10.81-9.59-17.23c-0.09-0.44-0.17-0.89-0.25-1.33c-1.58-9.51,0.43-19.84,4.34-28.71c0.12-0.28,0.53-0.04,0.41,0.24 c-3.7,8.4-5.7,18.11-4.48,27.17c0.06,0.44,0.12,0.88,0.2,1.31c1.11,6.49,3.93,12.59,9.03,17.58c4.08,3.98,9.89,6.49,15.92,7.21 c7.2,0.86,14.71-0.85,19.94-5.65c-0.13,0.05-0.26,0.09-0.4,0.14c-7.12,2.45-14.93,4.16-21.38-0.76 c-12.47-9.52-20.44-27.41-10.66-41.59c5.26-7.62,13.95-13.02,17.31-21.92c3.22-8.54,1.83-20.34-4.05-27.45 c-5.05-1.25-9.74-3.69-13.58-7.54c-0.16-0.16-0.33-0.32-0.49-0.49c-0.01-0.01-0.02-0.03-0.03-0.05h0c-0.06-0.1-0.04-0.2,0.03-0.28 c0.08-0.09,0.22-0.13,0.33-0.01c0.35,0.37,0.71,0.72,1.07,1.06c3.67,3.46,8.08,5.68,12.8,6.84c0.04,0.01,0.07,0.02,0.11,0.03 c8.73,2.12,18.49,0.62,26.59-3.41c0.03-0.02,0.06-0.03,0.1-0.05c0.27-0.14,0.51,0.27,0.24,0.41c-0.04,0.02-0.08,0.04-0.12,0.06 c-1.96,0.97-4.01,1.8-6.13,2.47c5.91,5.15,10.24,12.59,14.1,19.31C273.29,172.37,274.79,180.48,273.7,188.22z M252.09,157.46 c1.97,6.29,1.86,13.3,0.32,19.63c-1.81,7.4-6.43,14-11.81,19.28c-2.56,2.51-5.5,4.14-8.29,6.32c-10.43,8.17-7.94,21.41-3.43,32.28 c0.02,0.04,0.02,0.07,0.02,0.1c0.88,0.82,1.78,1.61,2.71,2.36c5.86,4.72,12.87,3.75,19.53,1.66c0.24-0.07,0.47-0.15,0.71-0.23 c-1.08,0.11-2.18,0.14-3.28,0.09c-3.67-0.17-7.34-1.25-10.18-3.45c-4.8-3.7-7.03-10.39-5.83-16.26 c2.09-10.28,11.65-16.07,18.27-23.49c0.11-0.12,0.21-0.24,0.31-0.36c3.22-3.68,5.68-7.79,6.15-13.05c0.15-3.65-0.15-7.34-0.85-11.05 C255.56,166.6,254.16,161.85,252.09,157.46z M245.95,148.09c-3.66,0.29-7.34,0.07-10.86-0.71c4.84,6.22,6.2,15.16,4.98,22.78 c-1.33,8.3-7.2,14.02-12.77,19.85c-3.17,3.32-6.32,6.83-8.21,11.07c-2.17,4.87-2.36,10.42-1.26,15.59 c1.44,6.8,5.32,12.81,10.27,17.67c-2.85-7.02-5.22-15.2-2.84-22.68c1.38-4.34,4.36-7.67,8.02-10.27c1.4-0.99,2.93-1.83,4.28-2.89 c4.54-3.56,8.29-8.43,11.15-13.4c5.21-9.05,6.04-21.66,1.51-31.14c0,0,0-0.01,0-0.01C248.98,151.85,247.57,149.88,245.95,148.09z M99.11,216.36c-0.01,0.02-0.02,0.04-0.03,0.05c0,0,0,0,0,0c-0.1,0.18-0.2,0.35-0.3,0.52c-6.22,10.61-19.27,13.2-26.81,22.46 c-2.72,3.34-4.36,7.6-3.22,11.89c1.05,3.96,4.29,6.7,8.25,6.76c0.18,0,0.35,0.01,0.53,0c-1.23,0.92-2.54,1.36-3.85,1.44 c-4.52,0.24-9.1-3.92-10.82-8.17c-2.17-5.36-1.06-11.23,1.74-16.14c4.26-7.46,12.35-11.74,16.49-19.23 c2.9-5.25,1.88-10.26-0.47-15.01c0.03-0.06,0.04-0.13,0-0.21c-8.5-18.16,9.01-31.13,22.45-39.63c0.13-0.08,0.26-0.16,0.39-0.24 c0.01,0,0.01-0.01,0.02-0.02c0.22-0.17,0-0.54-0.25-0.4h0c0,0,0,0-0.01,0c-0.13,0.08-0.27,0.17-0.4,0.26 c-7.16,4.52-14.68,9.31-19.8,16.19c-4.68,6.28-6.21,14.08-3.86,21.37c-0.45-0.76-0.92-1.51-1.41-2.26 c-2.58-3.95-5.2-7.89-6.12-12.61c-1-5.19-0.33-10.56,1.42-15.52c3.85-10.88,12.57-18.92,20.93-26.46c0.13-0.12,0.26-0.23,0.38-0.35 l0,0c0.03-0.02,0.05-0.05,0.08-0.07c0.19-0.17-0.02-0.43-0.22-0.39c-0.04,0.01-0.08,0.02-0.11,0.06c-0.09,0.09-0.19,0.17-0.29,0.26 c-7.95,7.17-16.26,14.74-20.46,24.84c-3.86,9.27-3.44,18.7,1.87,27.25c1.55,2.5,3.4,5.01,4.85,7.67c0.05,0.1,0.08,0.2,0.13,0.3 c0.02,0.05,0.05,0.07,0.09,0.09c1.13,2.14,1.97,4.39,2.18,6.83c0.49,5.8-3.14,10.46-6.99,14.35c-6.59,6.66-14.72,13.44-14.25,23.78 c0.25,5.45,4.79,12.57,10.19,13.88c0.52,0.13,1.05,0.2,1.58,0.21c0,0,0,0,0,0c1.8,0.04,3.65-0.6,5.44-2.2 c0.09-0.08,0.09-0.18,0.05-0.26c-0.02-0.09-0.09-0.16-0.22-0.15c-0.08,0.01-0.15,0.01-0.23,0.02c-0.01,0-0.01,0-0.02,0 c-0.55,0.06-1.07,0.06-1.58,0.02c-5.91-0.47-8.81-7.18-7.03-12.71c1.59-4.94,5.97-8.67,10.12-11.47c7.2-4.85,15.24-8.56,19.72-16.34 c0.09-0.15,0.18-0.29,0.26-0.44c0.01-0.02,0.02-0.05,0.02-0.07c0,0,0,0,0,0C99.59,216.3,99.24,216.12,99.11,216.36z M113.56,173.6 c-0.04,0.01-0.08,0.01-0.12,0.02c0,0-0.01,0-0.01,0c-0.18,0.03-0.36,0.06-0.54,0.1c-5.74,1.08-10.77,5.7-12.25,11.38 c-2.16,8.23,0.63,17.15,0.2,25.54c-0.01,0.14-0.01,0.27-0.02,0.41c0,0.05,0.01,0.1,0.04,0.13v0c0.1,0.16,0.42,0.12,0.44-0.13 c0-0.05,0-0.11,0.01-0.16c0.01-0.2,0.02-0.39,0.03-0.59c0.32-7.01-1.26-13.96-0.79-20.96c0.48-7.34,5.22-13.95,12.75-15.2 c0.14-0.02,0.27-0.06,0.41-0.08c0.05-0.01,0.08-0.03,0.11-0.05c0,0,0,0,0,0C113.93,173.87,113.8,173.57,113.56,173.6z M200.82,176.14c0.43-2.28,0.47-4.51,0.21-6.72c-0.05-0.41-0.11-0.82-0.18-1.23c-0.34-2-0.93-3.97-1.71-5.92 c-0.04-0.11-0.09-0.22-0.13-0.33c-0.02-0.06-0.06-0.09-0.11-0.12c-0.17-0.1-0.44,0.02-0.35,0.24c0.02,0.05,0.03,0.09,0.05,0.14 c0.07,0.17,0.13,0.33,0.19,0.5c0.86,2.21,1.35,4.31,1.57,6.39c0.05,0.45,0.08,0.91,0.1,1.36c0.14,3.16-0.31,6.32-1.07,9.84 c-1.07,4.93-1.89,9.92-2.36,14.95c-0.98,10.39-0.44,20.94,2.8,30.91c0.05,0.15,0.09,0.31,0.15,0.46c0.03,0.09,0.1,0.14,0.18,0.15 c0.03,0.01,0.05,0.01,0.08,0c0,0,0,0,0,0c0.13-0.02,0.25-0.12,0.2-0.28c-0.12-0.36-0.23-0.72-0.34-1.09 c-3.28-10.47-3.61-21.55-2.36-32.4C198.4,187.28,199.77,181.78,200.82,176.14z M167.6,36.87c9.89-1.13,20.64,1.34,29.14,6.47 c10.13,6.11,15.14,17.38,19.33,27.95c6.03,15.17,16.95,42.56,38.13,36.69c0.15-0.04,0.3-0.08,0.45-0.12 c0.02-0.01,0.04-0.01,0.05-0.01c0.27-0.08,0.18-0.48-0.07-0.46c-0.02,0-0.04,0-0.06,0.01c-0.13,0.04-0.26,0.07-0.4,0.11 c-12.36,3.43-22.69-6.4-28.63-16.29c-5.62-9.35-8.46-20-13.22-29.76c-0.12-0.25-0.24-0.49-0.37-0.73c2.58,3.81,5.25,7.56,7.99,11.26 c3.47,4.68,6.9,9.76,11.32,13.61c5.66,4.94,14.92,5.85,21.61,2.17c0.16-0.09,0.32-0.17,0.48-0.26c0.03-0.02,0.06-0.03,0.09-0.05 c0.23-0.14,0.07-0.48-0.15-0.44c-0.03,0-0.06,0.01-0.09,0.03c-0.13,0.08-0.26,0.15-0.39,0.22c-3.37,1.86-7.64,2.28-11.41,2.07 c-5.41-0.3-9.16-3.04-12.74-7.01c-7.24-8.02-13.46-17.36-19.33-26.4c-0.03-0.04-0.06-0.06-0.09-0.08c-3.8-6.15-8.68-11.3-15.43-14.6 c-7.93-3.87-17.21-5.81-26.02-4.85c0.96-2.19,1.99-4.35,3.11-6.46c6.18-2.88,13.89-2.07,20.32-0.53c7.48,1.79,13.21,5.3,18.38,11.01 c4.76,5.25,9.11,11.42,15.75,14.46c5.09,2.33,11,2.15,15.21-1.67c0.12-0.11,0.24-0.21,0.35-0.32c0.02-0.02,0.04-0.03,0.05-0.05 c0.2-0.2-0.08-0.5-0.29-0.36c-0.01,0.01-0.03,0.02-0.04,0.03c-0.1,0.1-0.2,0.19-0.31,0.28c-7.12,6.64-16.85,1.66-22.72-4.15 c-5.14-5.09-9.15-11.49-15.37-15.4c-8.2-5.16-21.69-7.9-30.96-3.97c0.8-1.49,1.65-2.96,2.53-4.41c6.11-5.67,18.03-8.4,25.79-4.96 c2.97,1.32,6.08,2.22,9.21,3.11c2.47,0.7,5.52,1.88,7.79,0.3c0.14-0.1,0.28-0.2,0.41-0.32c0,0,0,0,0,0c0.23-0.2-0.11-0.54-0.34-0.34 c-0.01,0.01-0.02,0.01-0.03,0.02c-0.13,0.12-0.28,0.21-0.43,0.3c-3.08,1.89-9.57-1.03-12.53-1.99c-2.95-0.96-5.54-2.43-8.67-2.76 c-6.78-0.72-14.9,0.98-20.39,5.33c3.31-5.21,7.15-10.07,11.54-14.45c0.22-0.22-0.12-0.55-0.34-0.34 c-4.77,4.76-8.89,10.08-12.39,15.8c-0.01,0.01-0.02,0.02-0.04,0.03c-0.05,0.04-0.06,0.09-0.07,0.14c-0.37,0.61-0.74,1.23-1.1,1.85 c0.87-3.82-0.03-8.1-1.1-11.72c-1.3-4.38-3.27-9.11-6.55-12.45c-0.21-0.21-0.42-0.42-0.64-0.62c-0.1-0.09-0.19-0.18-0.29-0.26 c-0.16-0.14-0.36-0.02-0.4,0.13c-0.02,0.07-0.01,0.15,0.07,0.21c0.13,0.12,0.26,0.24,0.39,0.36c3.33,3.11,5.35,7.7,6.71,11.96 c1.41,4.42,2.68,10.03,0.63,14.45c-0.01,0.03-0.02,0.06-0.02,0.09c-0.16,0.29-0.32,0.58-0.47,0.87c-0.07,0.04-0.09,0.1-0.09,0.17 c-1.12,2.13-2.17,4.31-3.13,6.52c1.98-7.73-1.17-17.53-6.33-23.27c-2.81-3.13-6.36-5.29-10.37-6.53c-4.49-1.38-9.24-1.96-12.83-5.17 c-0.15-0.14-0.31-0.28-0.46-0.43c-0.04-0.04-0.09-0.08-0.13-0.12c-0.17-0.18-0.42,0.01-0.4,0.21c0.01,0.04,0.02,0.09,0.06,0.13 c0.11,0.11,0.22,0.21,0.33,0.32c5.43,5.17,13.87,4.38,19.89,8.73c7.58,5.48,12.39,17.57,9.56,26.77 c-2.93-8.65-13.88-14.17-22.36-14.93c-7.34-0.66-14.52,1.08-21.83,1.28c-6.82,0.19-13.82-1.25-19.73-4.73 c-0.13-0.08-0.26-0.15-0.38-0.22c-0.02-0.01-0.04-0.02-0.06-0.03c-0.25-0.15-0.47,0.21-0.27,0.38c0.01,0.01,0.02,0.02,0.03,0.02 c0.12,0.07,0.24,0.13,0.36,0.2c4.32,2.56,9.16,4.01,14.15,4.58c6.55,0.76,12.98-0.53,19.51-1c6.58-0.47,12.89,0.02,18.78,3.17 c4.84,2.59,9.98,6.59,11.56,12.08c0,0.01,0,0.03,0,0.04c-13.29-4.82-29.43-5.77-42.66-0.25c-0.07-0.05-0.15-0.06-0.24-0.01 c-0.19,0.12-0.38,0.24-0.57,0.36c-3.14,1.41-5.91,3.3-8.49,5.44c-3.99,2.47-8.1,4.75-12.39,6.23c-3.85,1.33-6.48,0.99-9.63-1.48 c-2.14-1.68-4.14-3.71-5.57-6.04c-0.06-0.1-0.13-0.21-0.19-0.31c-0.03-0.05-0.06-0.07-0.1-0.09c-0.18-0.08-0.43,0.11-0.31,0.33 c0.03,0.05,0.06,0.1,0.09,0.15c0.09,0.15,0.18,0.3,0.28,0.46c2.45,3.91,7.22,8.87,12.03,8.31c4.07-0.47,7.88-2.72,11.39-4.67 c1.05-0.58,2.09-1.18,3.12-1.79c-2.83,2.49-5.46,5.23-8.17,7.9c-3.37,3.32-6.99,6.26-10.73,9.15c-4.58,3.54-9.12,6.45-14.95,4.16 c-0.13-0.05-0.26-0.09-0.39-0.15c-0.02-0.01-0.03-0.01-0.05-0.01c-0.26-0.06-0.46,0.31-0.19,0.42c0.01,0.01,0.03,0.01,0.04,0.02 c0.14,0.06,0.29,0.12,0.43,0.17c7.47,2.89,13.2-2.51,18.87-6.93c6.08-4.74,10.98-11,16.99-15.83c2.81-1.68,5.6-3.42,8.37-5.16 c13.19-5.91,29.96-4.65,43.08,0.16c-0.29,0.71-0.57,1.42-0.85,2.13c-0.06,0.15-0.12,0.3-0.18,0.45c-0.01,0.03-0.02,0.06-0.03,0.08 c-0.11,0.29,0.35,0.41,0.46,0.13c0,0,0,0,0,0c0.07-0.18,0.14-0.36,0.21-0.54C166.6,39.28,167.09,38.07,167.6,36.87z M233.06,128.55 c-7.94-4.57-13.03-12.21-16.57-20.47c-2.57-5.99-4.29-12.41-6.01-18.85c2.39,6.7,4.93,13.4,9.26,19.04 c5.66,7.38,13.59,13.15,22.95,14.48c0.3,0.04,0.43-0.41,0.13-0.46c-9.8-1.39-18.25-7.77-23.79-15.8 c-4.82-6.98-7.25-15.28-10.17-23.21c-2.07-7.31-4.5-14.45-8.55-20.78c-0.36-0.56-0.73-1.12-1.12-1.67 c-0.08-0.11-0.21-0.12-0.31-0.08c-0.12,0.05-0.19,0.18-0.1,0.32c0.43,0.61,0.84,1.24,1.23,1.87c0,0,0,0,0,0 c0.86,1.37,1.64,2.78,2.35,4.22c2.08,4.23,3.6,8.73,4.93,13.28c0,0.03,0,0.05,0.01,0.08c0.02,0.04,0.03,0.08,0.04,0.12 c0.71,2.43,1.37,4.87,2.03,7.28c2.47,8.99,5.04,18.17,9.62,26.36c7.02,12.57,23.11,23.8,37.9,17.66c0.14-0.06,0.27-0.1,0.41-0.16 c0.02-0.01,0.04-0.02,0.06-0.03c0.25-0.11,0.07-0.46-0.17-0.43c-0.02,0-0.05,0-0.07,0.02c-0.11,0.05-0.23,0.09-0.34,0.14 C249.06,134.72,240.08,132.59,233.06,128.55z M50.25,198.09c-0.63-0.91-1.21-1.84-1.72-2.79c-4.18-7.73-4.5-16.77-1.26-25.17 c4.02-10.4,12.09-18.95,19.44-27.09c0.2-0.23-0.13-0.56-0.34-0.34c-7.56,8.38-15.99,17.29-19.86,28.12 c-3.33,9.32-2.33,19.32,3.28,27.43c-13.56-9.37-14.35-28.85-8.96-43.21c6.38-17.03,21.49-29.96,35.05-41.37c0,0,0,0,0,0 c4.14,0.89,8.43,0.94,12.47-0.13c0.72-0.19,1.44-0.41,2.15-0.67h0c0.01,0,0.01,0,0.02-0.01c0.04-0.01,0.07-0.04,0.09-0.06 c0,0,0,0,0,0c0.15-0.16,0.03-0.49-0.22-0.4c-0.02,0.01-0.04,0.01-0.06,0.02c-8.72,3.26-19.04,0.69-26.46-4.54 c-0.25-0.18-0.49,0.23-0.24,0.41c3.42,2.41,7.45,4.25,11.66,5.25c-14.27,12.01-30.36,25.88-35.93,44.34 c-4.15,13.74-2.76,31.03,9.26,40.11c0.55,0.42,1.12,0.82,1.72,1.2c0.08,0.05,0.16,0.11,0.24,0.16c0.11,0.07,0.21,0.03,0.28-0.04 c0.09-0.06,0.13-0.17,0.04-0.28C50.68,198.72,50.47,198.4,50.25,198.09z M92.05,134.29c0.14-0.08,0.29-0.16,0.43-0.24 c0.02-0.01,0.04-0.02,0.05-0.03c0.24-0.13,0.07-0.47-0.15-0.44c-0.03,0-0.06,0.01-0.08,0.03c-0.12,0.06-0.24,0.13-0.35,0.2 c-16.44,9.08-29.9,23.2-36.71,40.83c-0.05,0.14-0.11,0.28-0.17,0.42c-0.03,0.07-0.02,0.13,0.01,0.17c0.03,0.06,0.1,0.1,0.17,0.11 c0.11,0.02,0.23-0.03,0.28-0.15c0.18-0.47,0.37-0.94,0.55-1.41C62.94,156.77,76.09,143.14,92.05,134.29z" fill="#FFF"/></g><g id="change4_1"><path d="M102.77,18.49c-0.13-0.08-0.26-0.15-0.38-0.22c0.78-0.82,1.58-1.62,2.42-2.38c6.95-6.23,15.54-10.59,24.46-13.22 c2.51-0.74,5.04-1.32,7.58-1.75c0.01,0.04,0.02,0.09,0.06,0.13c0.11,0.11,0.22,0.21,0.33,0.32c5.43,5.17,13.87,4.38,19.89,8.73 c7.58,5.48,12.39,17.57,9.56,26.77c-2.93-8.65-13.88-14.17-22.36-14.93c-7.34-0.66-14.52,1.08-21.83,1.28 C115.68,23.41,108.68,21.97,102.77,18.49z M142.23,232.83c0.3-0.07,0.17-0.53-0.13-0.46c-1.79,0.43-3.57,0.85-5.36,1.28 c-0.3,0.07-0.17,0.53,0.13,0.46C138.66,233.68,140.45,233.25,142.23,232.83z M142.96,131.67c4.9-3.91,11.65-2.72,14.93,2.61 c0.16,0.26,0.57,0.02,0.41-0.24c-3.47-5.62-10.52-6.83-15.68-2.71C142.39,131.53,142.73,131.86,142.96,131.67z M144.41,136.33 c-0.3-0.02-0.3,0.46,0,0.47c0.97,0.06,1.79,0.65,2.18,1.53c0.12,0.28,0.53,0.04,0.41-0.24C146.54,137.06,145.54,136.4,144.41,136.33 z M152.84,139.21c-0.2,0.23,0.14,0.57,0.34,0.34c0.74-0.87,1.94-1.16,2.98-0.67c0.27,0.13,0.52-0.28,0.24-0.41 C155.17,137.89,153.72,138.17,152.84,139.21z M144.79,90.08c-1.1-3.24-3.37-5.85-6.45-7.36c-0.27-0.13-0.51,0.28-0.24,0.41 c2.97,1.45,5.17,3.94,6.23,7.07C144.43,90.5,144.89,90.37,144.79,90.08z M169.6,94.09c2.1-2.37,4.88-3.82,8.03-4.15 c0.3-0.03,0.3-0.51,0-0.47c-3.27,0.35-6.18,1.83-8.36,4.29C169.06,93.98,169.4,94.32,169.6,94.09z M125.09,153.78 c-0.01-0.05,0-0.1,0.01-0.14c0.02-0.1,0.09-0.17,0.22-0.16c2.29,0.19,4.57,0.42,6.85,0.67c0.05-0.01,0.1,0,0.15,0.02 c12.63,1.38,25.15,3.55,37.52,6.5c0.12,0.03,0.21,0.17,0.17,0.29c-2.91,7.99-15.31,8.48-22.23,7.55 C139.62,167.4,127.3,162.89,125.09,153.78z M132.46,154.65c0.34,5.42,10.77,5.5,14.82,6c4.49,0.56,12.6,2.56,16.17-0.97 c-0.3-0.07-0.6-0.13-0.9-0.2c-3.99-0.86-7.99-1.63-12.01-2.32C144.54,156.14,138.51,155.31,132.46,154.65z M136.21,110.8 c0.13-0.07,0.14-0.21,0.08-0.31c-0.06-0.1-0.19-0.17-0.32-0.1c-8.77,4.55-19.01,3.17-26.22-3.57c-0.22-0.21-0.56,0.13-0.34,0.34 C116.8,114.05,127.25,115.46,136.21,110.8z M194.31,121.07c0.14-0.06,0.15-0.2,0.09-0.3s-0.19-0.17-0.33-0.11 c-9.01,4.07-19.15,2.11-25.99-5.02c-0.12-0.12-0.27-0.07-0.35,0.04c0,0,0,0.01,0,0.01c-0.05,0.08-0.07,0.19,0.02,0.28 C174.74,123.27,185.1,125.23,194.31,121.07z M228.07,273.69c-1.05,0.76-2.23,1.32-3.29,2.07c-1.4,1-2.39,2.1-2.93,3.73 c-0.1,0.29,0.36,0.41,0.46,0.13c1.3-3.91,5.69-4.24,7.91-7.26c0.96-1.3,1.36-3.14,0.49-4.61c-3.04-5.15-8.05,4.38-9.17,6.15 c-9.14,14.47-17.22,29.59-24.23,45.2c-0.12,0.28,0.28,0.52,0.41,0.24c5.32-11.84,11.24-23.41,17.79-34.62 c1.59-2.72,3.21-5.41,4.87-8.09c0.83-1.34,1.67-2.67,2.52-3.99c0.71-1.1,1.88-3.86,3.04-4.44c1.54,0.14,3.08,0.27,4.62,0.41 c0,0.71,0.01,1.42,0.01,2.12C230.23,271.89,229.02,273,228.07,273.69z M233.77,282.38c0.31,0,0.31-0.47,0-0.47 C233.46,281.91,233.46,282.38,233.77,282.38z M35.01,180.45c-2.72-10.41-1.19-21.66,1.89-31.82c6.51-21.47,20.54-39.52,31.11-59.03 c0.45-0.84,0.9-1.68,1.35-2.52c0.01,0.01,0.03,0.02,0.04,0.03c0.13,0.05,0.27,0.09,0.4,0.14c0.87,0.33,1.76,0.63,2.65,0.9 c0.27,0.08,0.55,0.16,0.82,0.24c0.64,0.18,1.28,0.36,1.92,0.51c0.3,0.07,0.6,0.15,0.91,0.21c0.69,0.15,1.38,0.29,2.08,0.41 c0.23,0.04,0.45,0.09,0.68,0.12c0.91,0.15,1.82,0.26,2.74,0.36c0.22,0.02,0.44,0.03,0.67,0.05c0.71,0.06,1.41,0.11,2.12,0.14 c0.32,0.01,0.63,0.02,0.95,0.03c0.64,0.02,1.29,0.02,1.93,0.01c0.3,0,0.6-0.01,0.9-0.02c0.84-0.03,1.68-0.07,2.52-0.15 c0.08-0.01,0.17-0.01,0.25-0.02c0.91-0.08,1.82-0.19,2.73-0.32c0.3-0.04,0.6-0.1,0.89-0.14c0.63-0.1,1.26-0.21,1.88-0.34 c0.32-0.06,0.65-0.13,0.97-0.2c0.65-0.14,1.29-0.3,1.93-0.47c0.26-0.07,0.53-0.13,0.79-0.2c0.87-0.24,1.74-0.51,2.6-0.8 c0.23-0.08,0.45-0.16,0.68-0.24c0.65-0.23,1.29-0.47,1.93-0.72c0.31-0.12,0.62-0.25,0.92-0.38c2.51-1.06,4.94-2.32,7.24-3.78 c0.25-0.16,0.49-0.32,0.74-0.48c0.72-0.47,1.43-0.96,2.12-1.47c1.8-1.18,3.44-2.56,4.83-4.13c1.71-1.68,3.28-3.5,4.7-5.45 c0.63-0.87,1.24-1.76,1.8-2.69c0.66-1.07,1.27-2.17,1.83-3.3c0.06-0.12,0.13-0.23,0.18-0.36c0.02-0.04,0.02-0.09,0.02-0.13 c0,0,0,0,0-0.01c0.18-0.01,0.36-0.01,0.55-0.01c0.4-0.02,0.79-0.04,1.19-0.03c0.2,0,0.4,0.02,0.59,0.03 c0.41,0.02,0.81,0.03,1.22,0.08c0.26,0.03,0.52,0.07,0.79,0.11c0.34,0.04,0.68,0.08,1.01,0.14c0.59,0.1,1.18,0.22,1.75,0.36 c2.85,0.69,5.02,2.63,7.19,4.5c0.16,0.14,0.03,0.41-0.17,0.4c-5.6-0.06-11.21-0.1-16.81-0.16c-0.04,0-0.08-0.01-0.11-0.03 c-0.86,1.83-1.72,3.66-2.61,5.47c-0.42,0.86-0.86,1.72-1.3,2.57c8.64,1.98,20.07,7.86,20.79,17.8c0,0.01,0,0.01,0,0.02 c0,0.01,0,0.02,0,0.03c-0.01,0.1-0.08,0.15-0.17,0.17c0,0,0,0,0,0c-0.02,0-0.03,0.01-0.05,0.01c-0.02,0-0.04-0.01-0.06-0.01 c-0.08-0.01-0.15-0.05-0.18-0.15c-0.16-0.59-0.36-1.15-0.58-1.69c-0.08-0.19-0.17-0.36-0.25-0.54c-0.16-0.34-0.31-0.69-0.49-1.01 c-0.11-0.21-0.24-0.4-0.37-0.6c-0.17-0.28-0.34-0.55-0.52-0.82c-0.15-0.21-0.3-0.4-0.46-0.6c-0.18-0.24-0.37-0.47-0.57-0.69 c-0.17-0.2-0.36-0.39-0.54-0.58c-0.2-0.2-0.4-0.4-0.6-0.6c-0.2-0.19-0.41-0.37-0.62-0.54c-0.21-0.18-0.42-0.35-0.64-0.52 c-0.23-0.17-0.45-0.34-0.69-0.51c-0.22-0.15-0.44-0.3-0.66-0.44c-0.25-0.16-0.49-0.31-0.75-0.46c-0.08-0.05-0.16-0.11-0.25-0.16 c0.01,0.01,0.03,0.03,0.04,0.04c2.94,2.52,4.8,6.25,4.8,10.43c0,7.59-6.15,13.74-13.74,13.74c-7.59,0-13.74-6.15-13.74-13.74 c0-1.15,0.14-2.27,0.41-3.33c0,0,0,0,0,0c-0.73,0.92-1.48,1.81-2.25,2.7c-0.15,0.17-0.3,0.34-0.45,0.51 c-0.64,0.72-1.28,1.44-1.94,2.14c-0.16,0.17-0.31,0.33-0.46,0.5c-0.8,0.84-1.62,1.67-2.46,2.48c-0.02,0.02-0.03,0.03-0.05,0.05 c-0.12,0.11-0.24,0.22-0.35,0.33c-0.69,0.66-1.39,1.3-2.1,1.93c-0.2,0.17-0.39,0.34-0.59,0.52c-0.75,0.65-1.5,1.28-2.27,1.91 c-0.13,0.11-0.26,0.21-0.39,0.32c-0.9,0.72-1.83,1.42-2.76,2.11c-0.15,0.11-0.3,0.21-0.45,0.32c-0.79,0.57-1.6,1.12-2.42,1.67 c-0.22,0.15-0.45,0.3-0.67,0.44c-0.96,0.62-1.93,1.23-2.92,1.81c0.15-0.16,0.03-0.49-0.22-0.4c-0.02,0.01-0.04,0.01-0.06,0.02 c-8.72,3.26-19.04,0.69-26.46-4.54c-0.25-0.18-0.49,0.23-0.24,0.41c3.42,2.41,7.45,4.25,11.66,5.25 c-14.27,12.01-30.36,25.88-35.93,44.34c-4.15,13.74-2.76,31.03,9.26,40.11c0.55,0.42,1.12,0.82,1.72,1.2 C41.99,196.44,37.14,188.62,35.01,180.45z M124.75,99.27c0-1.96-1.59-3.55-3.55-3.55c-1.96,0-3.55,1.59-3.55,3.55 c0,1.96,1.59,3.55,3.55,3.55C123.16,102.82,124.75,101.23,124.75,99.27z M131.55,87.58c-3.7,0-6.71,3-6.71,6.71s3,6.71,6.71,6.71 s6.71-3,6.71-6.71S135.26,87.58,131.55,87.58z M126.24,82.7c0,0,0.01,0,0.01,0c-0.02,0-0.04-0.01-0.06-0.01 c-0.83-0.17-1.67-0.31-2.5-0.44c-0.16-0.02-0.31-0.04-0.47-0.07c-0.82-0.11-1.63-0.21-2.43-0.28c-0.6,1.03-1.22,2.04-1.86,3.04 c0,0,0,0,0,0C121.03,83.56,123.54,82.74,126.24,82.7z M86.9,41.97c1.42,2.33,3.43,4.36,5.57,6.04c3.14,2.47,5.78,2.81,9.63,1.48 c4.29-1.48,8.4-3.76,12.39-6.23c2.58-2.14,5.35-4.03,8.49-5.44c0.19-0.12,0.38-0.24,0.57-0.36c0.09-0.06,0.18-0.04,0.24,0.01 c13.23-5.51,29.36-4.57,42.66,0.25c0-0.01,0-0.02,0-0.04c-1.58-5.49-6.72-9.49-11.56-12.08c-5.89-3.15-12.2-3.64-18.78-3.17 c-6.52,0.47-12.95,1.76-19.51,1c-4.99-0.58-9.82-2.02-14.15-4.58c-0.12-0.07-0.24-0.13-0.36-0.2c-0.01-0.01-0.02-0.02-0.03-0.02 c-3.88,4.17-7.13,9.06-10.28,13.73c-2.01,2.98-3.72,6.05-5.18,9.21c0.04,0.02,0.08,0.04,0.1,0.09 C86.77,41.76,86.84,41.86,86.9,41.97z M79.35,65.57c5.83,2.29,10.37-0.62,14.95-4.16c3.74-2.89,7.36-5.83,10.73-9.15 c2.71-2.67,5.34-5.42,8.17-7.9c-1.04,0.61-2.07,1.2-3.12,1.79c-3.51,1.95-7.32,4.2-11.39,4.67c-4.81,0.56-9.58-4.4-12.03-8.31 c-0.1-0.15-0.19-0.31-0.28-0.46c-2.14,4.72-3.74,9.65-4.99,14.84c-0.7,2.89-1.53,5.73-2.48,8.53c0.02,0,0.03,0,0.05,0.01 C79.09,65.48,79.22,65.52,79.35,65.57z M252.93,199.2c2.03-4,3.32-8.16,3.94-12.42c-1.12,3.41-3.1,6.33-5.47,9.04 c-0.11,0.12-0.21,0.25-0.32,0.37c-4.13,4.63-9.33,8.67-13.2,13.52c-5.04,6.29-7.16,14.59-2.5,21.77c2.34,3.6,6.04,5.73,10.08,6.59 c0.88,0.19,1.77,0.31,2.67,0.38c-3.94-0.72-7.42-3.28-8.97-7.37c-2.34-6.16,0.92-11.51,5-15.94c3.7-4.01,8.76-9.16,8.61-14.76 c-0.17,0.03-0.36-0.15-0.26-0.35C252.66,199.75,252.79,199.47,252.93,199.2z M91.94,133.81c0.12-0.07,0.23-0.13,0.35-0.2 c0.03-0.02,0.06-0.02,0.08-0.03c-0.2-0.93-0.39-1.87-0.56-2.81c-0.01-0.05-0.02-0.11-0.03-0.16c-0.16-0.9-0.31-1.81-0.44-2.72 c-0.01-0.09-0.03-0.18-0.04-0.27c-0.13-0.89-0.24-1.78-0.34-2.68c-0.01-0.09-0.02-0.18-0.03-0.28c-0.1-0.91-0.18-1.83-0.25-2.74h0 c-0.15,0.04-0.31,0.08-0.46,0.12c-13.07,3.24-24.59,10.68-32.92,21.28c-0.19,0.24-0.52-0.1-0.34-0.34 c8.4-10.68,20.04-18.18,33.22-21.42c0.13-0.03,0.27-0.07,0.4-0.1c0.02-0.01,0.04,0,0.06,0c0,0,0,0,0,0 c-0.08-1.16-0.14-2.32-0.17-3.49c-0.01-0.38-0.02-0.77-0.03-1.15c-0.01-0.41-0.01-0.82-0.01-1.23c0-0.9,0-1.81,0.03-2.72 c0,0,0,0,0,0c-0.71,0.27-1.42,0.48-2.15,0.67c-4.04,1.07-8.33,1.02-12.47,0.13c0,0,0,0,0,0c-13.55,11.41-28.66,24.34-35.05,41.37 c-5.38,14.35-4.6,33.84,8.96,43.21c-5.61-8.11-6.61-18.11-3.28-27.43c3.87-10.83,12.3-19.74,19.86-28.12 c0.21-0.23,0.54,0.11,0.34,0.34c-7.35,8.14-15.42,16.7-19.44,27.09c-3.24,8.4-2.92,17.44,1.26,25.17c0.51,0.95,1.09,1.88,1.72,2.79 c-3.9-6.98-2.97-19.1,4.83-22.85c-0.03-0.05-0.03-0.11-0.01-0.17c0.05-0.14,0.11-0.28,0.17-0.42C62.04,157,75.5,142.89,91.94,133.81 z M100.63,185.1c1.49-5.67,6.52-10.3,12.25-11.38c0.18-0.03,0.36-0.07,0.54-0.1c-0.26-0.27-0.51-0.56-0.77-0.83 c-0.52-0.56-1.04-1.11-1.55-1.68c-0.33-0.38-0.65-0.77-0.98-1.15c-0.47-0.55-0.94-1.1-1.4-1.67c-0.4-0.5-0.79-1.02-1.18-1.54 c-0.35-0.46-0.72-0.92-1.06-1.39c-0.73-1-1.44-2.02-2.12-3.05c-0.32-0.48-0.61-0.97-0.92-1.46c-0.01,0-0.01,0.01-0.02,0.02 c-0.13,0.08-0.26,0.16-0.39,0.24c-13.44,8.51-30.95,21.47-22.45,39.63c0.04,0.08,0.03,0.15,0,0.21c2.35,4.76,3.37,9.77,0.47,15.01 c-4.14,7.49-12.22,11.77-16.49,19.23c-2.8,4.9-3.91,10.78-1.74,16.14c1.72,4.24,6.3,8.41,10.82,8.17c1.31-0.07,2.62-0.51,3.85-1.44 c-0.18,0.01-0.35,0.01-0.53,0c-3.96-0.06-7.2-2.79-8.25-6.76c-1.14-4.29,0.5-8.56,3.22-11.89c7.54-9.27,20.59-11.85,26.81-22.46 c0.1-0.17,0.21-0.35,0.3-0.52c-0.02-0.01-0.04-0.02-0.07-0.03c-0.12-0.04-0.24-0.08-0.36-0.13c-0.04-0.02-0.08-0.04-0.12-0.06 c-0.1-0.05-0.2-0.11-0.29-0.17c-0.03-0.02-0.07-0.04-0.1-0.07c-0.1-0.07-0.18-0.15-0.26-0.24c-0.01-0.02-0.03-0.03-0.05-0.05 c-0.09-0.1-0.16-0.22-0.21-0.34c-0.01-0.03-0.01-0.06-0.02-0.08c-0.03-0.1-0.06-0.2-0.06-0.3c0-0.05,0-0.1,0-0.14 c0-0.1,0.02-0.2,0.04-0.3c0.01-0.06,0.03-0.11,0.05-0.17c0.04-0.11,0.09-0.23,0.15-0.35c0.03-0.06,0.05-0.11,0.08-0.17 c0.11-0.18,0.23-0.37,0.4-0.58c0.15-0.18,0.31-0.35,0.49-0.52c0.04-0.04,0.09-0.08,0.14-0.12c0.18-0.16,0.36-0.31,0.56-0.46 c0,0,0,0,0.01,0c0.2-0.15,0.41-0.3,0.63-0.45c0.06-0.04,0.11-0.08,0.17-0.11c0.2-0.13,0.4-0.27,0.6-0.4v0 c-0.02-0.04-0.04-0.08-0.04-0.13c0.01-0.14,0.01-0.27,0.02-0.41C101.27,202.25,98.48,193.33,100.63,185.1z M34.47,330.29 c5.91-10.84,11.82-21.67,17.72-32.5c0.15-0.27-0.26-0.51-0.41-0.24c-6.09,11.17-12.19,22.34-18.28,33.52 c-4.76,8.74-9.51,17.59-12.82,26.99c-0.01-0.01-0.01-0.01-0.02-0.02c-8.22-5.73-15.4-13.31-20.67-21.83v0.89 c5.28,8.33,12.35,15.72,20.43,21.35c0.03,0.02,0.07,0.04,0.1,0.04c-0.54,1.54-1.04,3.09-1.49,4.66c-2.78,9.68-3.41,19.49-2.78,29.3 c-0.02,0.03-0.03,0.07-0.03,0.11c0.02,5.68,0.22,11.35,0.56,17.01c-0.02,0.02-0.03,0.05-0.04,0.08 c-4.33,13.45-8.81,26.85-13.13,40.29h0.5c4.2-13.06,8.54-26.07,12.75-39.12c0.84,13.1,2.47,26.13,4.57,39.12h0.48 c-2.77-17.12-4.72-34.3-5.13-51.62c1.4,12.46,4.57,24.85,7.72,36.87c0.08,0.3,0.53,0.17,0.46-0.13 c-6.2-23.67-12.44-48.71-5.14-72.89C23.22,350.93,28.88,340.56,34.47,330.29z M296.37,391.3C296.37,391.3,296.37,391.3,296.37,391.3 c-0.08,0.35-0.18,0.69-0.28,1.04c-2.66,8.55-12.29,10.64-20.02,11.98c-10.84,1.88-21.86,2.79-32.86,2.95 c-0.04,0-0.08-0.01-0.11-0.02c-6.47,14.83-13.98,29.25-22.97,42.7h-0.57c9-13.43,16.81-27.87,23.42-42.88 c-0.01-0.09,0.02-0.18,0.1-0.23c8.52-19.4,15.03-39.75,19.52-60.1c0-0.01,0-0.01,0.01-0.01c-12.01-3.22-24.91-3.08-36.76,0.92 c-12.34,4.16-23.36,12.41-31.41,22.72c0,0,0,0.01,0,0.01c-0.61,2.93-1.42,5.81-2.41,8.62c0,0.06-0.02,0.12-0.06,0.17 c-0.47,1.32-0.97,2.62-1.51,3.91c4.13,5.89,8.46,11.63,12.79,17.4c6.04,8.04,11.63,16.72,12.4,27.01c0.02,0.31-0.45,0.3-0.47,0 c-0.96-12.89-9.53-23.08-17.05-32.93c-27.25-35.69-45.93-77.59-54.38-121.68c0-0.01,0-0.01,0-0.02c-0.01-0.03-0.01-0.07,0-0.11 c1.36-6.51,2.16-13.11,3.22-19.68c0.54-3.37,1.24-6.69,1.93-10.03c0.92-4.42-0.24-8.14-2.92-11.7c-4.57-6.56-9.01-13.23-13.71-19.69 c-1.47-2.02-3.07-3.77-5.6-4.43c-2.05-0.53-4.3-0.32-6.39-0.25c-4.07,0.13-8.15,0.28-12.22,0.41c-2.18,0.17-4.56,2.02-6.3,3.21 c-0.15,0.1-0.3,0.2-0.46,0.3c0,0,0,0,0,0c0.01-0.2,0.02-0.39,0.03-0.59c0.32-7.01-1.26-13.96-0.79-20.96 c0.48-7.34,5.22-13.95,12.75-15.2c0.14-0.02,0.27-0.06,0.41-0.08c0.05-0.01,0.08-0.03,0.11-0.05c0.08,0.08,0.16,0.17,0.24,0.25 c0.02,0.01,0.03,0.02,0.04,0.04c1.96,1.98,4.02,3.86,6.2,5.59c6.1,4.86,12.15,11.54,20.17,12.7c5,0.9,9.46-0.4,14.05-2.26 c3.51-1.42,7.08-2.56,10.62-3.89c6.9-2.59,13.45-6.12,19.37-10.5c0.76-0.56,1.5-1.14,2.23-1.72c0.27-0.22,0.53-0.44,0.8-0.66 c0.44-0.37,0.88-0.73,1.32-1.11c0.33-0.29,0.67-0.58,0.99-0.88c0.33-0.3,0.66-0.6,0.98-0.9c0.39-0.36,0.77-0.72,1.15-1.08 c0.16-0.15,0.31-0.31,0.46-0.46c1.61-1.6,3.15-3.26,4.61-4.99c0.01-0.02,0.03-0.03,0.04-0.05c0.52-0.62,1.03-1.25,1.53-1.89 c0,0,0,0,0,0c0.07,0.17,0.13,0.33,0.19,0.5c0.86,2.21,1.35,4.31,1.57,6.39c0.05,0.45,0.08,0.91,0.1,1.36 c0.14,3.16-0.31,6.32-1.07,9.84c-1.07,4.93-1.89,9.92-2.36,14.95c-0.98,10.39-0.44,20.94,2.8,30.91c0.05,0.15,0.09,0.31,0.15,0.46 c0.03,0.09,0.1,0.14,0.18,0.15c-0.82,2.95-0.61,5.92,0.45,8.52c0,0.01,0.01,0.01,0.01,0.02c0.15,0.36,0.31,0.72,0.5,1.06 c0.02,0.03,0.03,0.06,0.05,0.08c0.17,0.32,0.36,0.64,0.56,0.95c0.03,0.05,0.07,0.1,0.11,0.15c0.19,0.28,0.39,0.56,0.6,0.83 c0.06,0.07,0.12,0.14,0.18,0.21c0.2,0.24,0.4,0.48,0.62,0.7c0.09,0.09,0.19,0.18,0.28,0.27c0.2,0.19,0.4,0.39,0.62,0.57 c0.13,0.11,0.26,0.2,0.4,0.31c0.2,0.15,0.39,0.31,0.6,0.46c0.17,0.12,0.36,0.22,0.53,0.33c0.18,0.11,0.36,0.24,0.55,0.34 c0.23,0.13,0.48,0.24,0.72,0.36c0.15,0.07,0.29,0.16,0.45,0.22c0.4,0.18,0.82,0.34,1.25,0.48c0.01,0,0.02,0.01,0.02,0.01 c0.02,0.01,0.03,0.02,0.05,0.03c0.01,0.01,0.02,0.02,0.03,0.03c0.01,0.01,0.01,0.02,0.02,0.03c0.01,0.01,0.01,0.02,0.02,0.04 c-0.03,0-0.06,0-0.09,0.01c-1.3,0.41-2.69,0.56-4.1,0.51c-3.84-0.14-7.81-1.85-10.47-4.35c-4.09-3.84-6.21-9.57-7.69-14.83 c-2.08-7.39-2.62-15.09-1.72-22.64c0.09-0.72,0.18-1.44,0.3-2.15c0.52-3.31,1.3-6.58,2.37-9.78c0.1-0.29-0.36-0.41-0.46-0.13 c-1.33,3.99-2.24,8.11-2.72,12.27c-0.08,0.69-0.14,1.37-0.2,2.06c-0.67,8.35,0.41,16.82,3.34,24.75c1.72,4.65,4.16,9.59,8.44,12.39 c1.64,1.07,3.58,1.92,5.6,2.42c1.05,0.26,2.12,0.42,3.19,0.46c-0.34,0.03-0.67,0.04-1.01,0.05c-0.09,0-0.19,0.01-0.28,0.01 c-0.32,0.01-0.63,0.01-0.95,0c-0.11,0-0.22-0.01-0.33-0.01c-0.31-0.01-0.62-0.03-0.93-0.05c-0.09-0.01-0.18-0.02-0.28-0.03 c-0.98-0.09-1.95-0.25-2.91-0.47c-0.15-0.04-0.3-0.07-0.45-0.11c-0.24-0.06-0.48-0.13-0.72-0.21c-0.18-0.05-0.36-0.11-0.54-0.17 c-0.22-0.07-0.44-0.15-0.66-0.23c-0.2-0.07-0.4-0.15-0.59-0.24c-0.2-0.08-0.4-0.16-0.59-0.25c-0.24-0.11-0.48-0.23-0.72-0.35 c-0.15-0.07-0.29-0.14-0.44-0.22c-0.37-0.2-0.73-0.41-1.09-0.63c-0.13-0.08-0.26-0.17-0.39-0.26c-0.24-0.16-0.48-0.32-0.71-0.49 c-0.14-0.1-0.27-0.21-0.41-0.32c-0.22-0.17-0.44-0.35-0.65-0.54c-0.13-0.11-0.26-0.22-0.38-0.34c-0.22-0.21-0.44-0.42-0.66-0.64 c-0.1-0.11-0.21-0.21-0.31-0.32c-0.31-0.33-0.62-0.67-0.91-1.04c-1.5-1.87-2.69-3.85-3.61-5.91 c-16.22,10.55-30.26,24.76-39.76,41.68c-0.02,0.04-0.05,0.07-0.09,0.09c0,0,0,0.01,0,0.01c2.44,12.68,5.68,25.2,9.78,37.45 c7.33,21.92,17.28,42.96,29.59,62.52c2.1,3.34,4.3,6.61,6.56,9.83c0.46-1.11,0.89-2.22,1.3-3.35c-0.4-0.03-0.83-0.22-1.13-0.43 c-0.51-0.35-0.8-0.89-1.16-1.38c-0.06-0.08-0.05-0.15-0.02-0.21c2.13-11.82,3.72-23.72,4.76-35.67c-0.07,0.13-0.14,0.26-0.2,0.39 c-0.14,0.27-0.55,0.03-0.41-0.24c0.23-0.46,0.48-0.9,0.72-1.36c0.2-2.41,0.38-4.82,0.54-7.24c-0.08,0.21-0.18,0.41-0.26,0.62 c-0.11,0.28-0.57,0.16-0.46-0.13c0.26-0.65,0.54-1.29,0.81-1.93c0.62-9.84,0.87-19.7,0.75-29.57c0-0.31,0.47-0.31,0.47,0 c0.12,9.42-0.11,18.84-0.66,28.24c8.71-20.24,21.77-38.36,38.27-53.01c0.23-0.2,0.56,0.13,0.34,0.34 c-16.79,14.9-30.03,33.42-38.7,54.11c-0.16,2.51-0.34,5.01-0.54,7.51c11.97-22.5,29.21-41.89,50.2-56.38 c0.23-0.16,0.46,0.18,0.29,0.37c-7.25,7.8-14.5,15.59-21.76,23.39c-0.21,0.22-0.54-0.11-0.34-0.34c3.63-3.9,7.25-7.8,10.88-11.7 c1.67-1.8,3.35-3.6,5.02-5.4c0.84-0.9,1.67-1.8,2.51-2.7c0.59-0.63,2.17-1.91,2.51-2.7c-0.3,0.7-2.75,2.21-3.94,3.1 c-1.92,1.44-3.81,2.92-5.67,4.44c-3.34,2.74-6.57,5.63-9.67,8.64c-12.14,11.78-22.3,25.47-30.13,40.45 c-1.02,11.96-2.58,23.88-4.67,35.71c8.23-13.22,21.13-24.03,35.94-29.01c16.37-5.51,34.7-3.73,50,4.07 c3.48,1.95,6.64,4.29,8.87,7.65c1.93,2.91,3.03,6.25,4.67,9.31c3.27,6.08,7.64,12.48,7.54,19.52c1.23-6.88-0.5-14.83-1.69-21.31 c-3.86-20.99-10.36-41.42-15.92-62c-3.24-12-5.5-24.55-11.37-35.63c-1.11-2.09-2.34-4.32-3.7-6.55c-0.78-1.27-1.6-2.55-2.47-3.8 c-0.43-0.63-0.88-1.24-1.34-1.85c-1.14-1.52-2.36-2.99-3.66-4.35c-2.59-2.72-5.5-5.02-8.77-6.51c-1.31-0.6-2.67-1.06-4.09-1.37h0 c0.32-0.08,0.63-0.16,0.94-0.25c11.44,3.02,19.37,16.05,24.25,25.92c5.5,11.13,7.76,23.56,10.99,35.47 c3,11.06,6.19,22.07,9.13,33.15c2.81,10.6,5.54,21.28,7.23,32.12C297.35,377.23,298.7,384.95,296.37,391.3z M144.48,271.46 c9.53-16.56,23.4-30.49,39.39-40.88c-1.11-2.58-1.8-5.28-2.15-8.05c-1.34-7.29-1.99-14.66-1.51-22.08 c0.53-8.14,2.29-16.12,4.37-23.99c-6.26,4.61-13.2,8.26-20.51,10.88c-7.54,2.7-15.52,7.2-23.74,5.72 c-7.9-1.15-13.32-7.39-19.36-12.03c-2.37-1.82-4.61-3.79-6.73-5.9c1.75,10.37,2.26,20.95,1.84,31.45c2.16-0.08,4.32-0.15,6.48-0.17 c3.2-0.02,6.07,0.41,8.38,2.8c2.78,2.88,4.85,6.63,7.13,9.91c2.78,3.99,5.55,7.98,8.33,11.96c1.95,2.6,3.37,5.54,3.4,8.85 c0.03,3.27-1.22,6.66-1.79,9.87C146.71,257.01,145.9,264.29,144.48,271.46z M193.76,371.26c-1.48,1.96-2.86,3.98-4.12,6.07 c0.23,0.33,0.45,0.7,0.75,0.97c0.28,0.25,0.8,0.53,1.22,0.49C192.47,376.32,193.18,373.81,193.76,371.26z M288.35,367.44 c-1.23-2.46-2.19-5.07-3.6-7.44c-2.22-3.72-5.52-6.26-9.25-8.36c-3.97-2.02-8.14-3.63-12.42-4.81c0,0.01,0,0.01,0,0.02 c-4.09,18.53-10.05,36.64-17.31,54.16c-0.8,1.93-1.62,3.86-2.45,5.77c10-0.14,20-0.92,29.88-2.47c8.23-1.29,19.53-2.81,22.44-12.1 c0.11-0.34,0.2-0.68,0.28-1.02c0-0.01,0-0.01,0-0.02c0-0.01,0-0.01,0.01-0.02C298.05,382.36,292.07,374.86,288.35,367.44z M36.38,254.14c4.18-6.59,10.65-10.49,17.97-12.73c-1.15,5.17,0.36,10.91,4.3,14.53c0.29,0.27,0.59,0.52,0.9,0.76 c0.09,0.07,0.19,0.14,0.28,0.22c0.23,0.18,0.47,0.34,0.71,0.51c0.1,0.07,0.19,0.13,0.29,0.2c0.32,0.21,0.65,0.41,0.98,0.6 c0.07,0.04,0.15,0.08,0.22,0.12c0.27,0.14,0.54,0.28,0.81,0.41c0.14,0.07,0.28,0.13,0.42,0.19c0.22,0.1,0.44,0.19,0.67,0.28 c0.15,0.06,0.3,0.12,0.45,0.17c0.33,0.12,0.66,0.23,1,0.33c0.17,0.05,0.35,0.09,0.53,0.14c0.19,0.05,0.38,0.1,0.57,0.14 c0.2,0.05,0.41,0.09,0.61,0.12c0.16,0.03,0.33,0.06,0.49,0.08c0.77,0.12,1.55,0.18,2.32,0.19c0.13,0,0.25,0,0.38,0 c0.24,0,0.49-0.01,0.73-0.03c0.11-0.01,0.22-0.02,0.33-0.03c0.55-0.05,1.1-0.12,1.63-0.23c0.01,0,0.02,0,0.03,0c0,0,0,0,0,0 c-0.53-0.01-1.06-0.08-1.58-0.21c-5.4-1.31-9.94-8.43-10.19-13.88c-0.47-10.35,7.66-17.12,14.25-23.78 c3.85-3.89,7.48-8.55,6.99-14.35c-0.2-2.43-1.05-4.69-2.18-6.83c-0.03-0.02-0.06-0.05-0.09-0.09c-0.05-0.1-0.08-0.2-0.13-0.3 c-1.45-2.67-3.3-5.17-4.85-7.67c-5.31-8.54-5.73-17.97-1.87-27.25c4.2-10.09,12.51-17.66,20.46-24.84c0.09-0.09,0.19-0.17,0.29-0.26 c0.04-0.03,0.08-0.05,0.11-0.06h0c-0.33-1.08-0.64-2.17-0.93-3.26c0,0,0-0.01,0-0.01c-0.29-1.09-0.55-2.19-0.8-3.29 c-0.14,0.08-0.29,0.16-0.43,0.24c-15.96,8.85-29.11,22.48-35.97,39.49c-0.19,0.47-0.37,0.94-0.55,1.41 c-0.05,0.13-0.17,0.17-0.28,0.15c-2.71,5.53-3.56,11.85-2.18,17.94c1.94,8.54,8.82,14.73,11.32,23.02 c1.63,5.4,1.08,10.65-2.88,14.84c-2.47,2.61-5.13,4.6-6.49,8.05c-0.22,0.55-0.39,1.12-0.54,1.7c-6.21,1.86-11.97,4.85-16.21,9.88 c-2.48,2.94-4.24,6.44-6.14,9.76c-2.26,3.95-4.48,7.92-6.67,11.9C16.93,287.88,8.75,303.53,0,318.88v0.96 c8.31-14.54,16.11-29.37,24.16-44.06C28.12,268.55,31.95,261.11,36.38,254.14z M141.11,402.38c4.64,17.17,10.99,34.67,23.68,47.56 h-0.66c-6.33-6.52-11.13-14.03-14.76-22.37c-7.96-18.24-11.88-37.67-15.84-57.08c-4.26-20.89-8.52-41.79-12.78-62.68 c-0.7-0.48-1.39-0.97-2.05-1.49c-1.8,6.21-7.26,11.01-12.36,14.62c-7.2,5.1-14.94,8.7-20.07,16.26c-0.03,0.05-0.08,0.07-0.12,0.09 c-14.05,37.07-27.09,74.53-38,112.65h-0.49c3.83-13.39,7.92-26.71,12.23-39.96c7.62-23.41,15.91-46.59,24.59-69.62 c4.38-11.61,8.86-23.19,13.41-34.73c3.87-9.81,6.63-19.69,7.02-30.13c-0.16-6.47,0.37-12.94,0.05-19.41 c-0.31-6.35-1.41-15.3-8.06-18.04c0,0.02,0,0.04,0,0.06c-1.2,5.42-9.72,9.11-14.63,6.65c-2.33,0.84-4.59,1.64-6.32,3.52 c-2.59,2.83-3.02,8.61,1.94,9.22c0.05-0.01,0.1,0.01,0.14,0.04c-0.01,0-0.01,0-0.02,0c-0.55,0.06-1.07,0.06-1.58,0.02 c-5.91-0.47-8.81-7.18-7.03-12.71c1.59-4.94,5.97-8.67,10.12-11.47c7.2-4.85,15.24-8.56,19.72-16.34c0.09-0.15,0.18-0.29,0.26-0.44 c0.01-0.02,0.02-0.05,0.02-0.07c0.01,0,0.02,0,0.02,0c0.19,0.04,0.37,0.06,0.57,0.08c0.02,0,0.03,0,0.05,0 c0.17,0.01,0.34,0.02,0.5,0.02c0.05,0,0.1,0,0.15,0c0.14,0,0.27-0.01,0.4-0.02c0.05,0,0.1-0.01,0.15-0.01 c0.17-0.02,0.34-0.04,0.49-0.07c3.97-3.91,8.53-6.02,13.69-2.81c0.76,0.47,1.5,0.96,2.24,1.46c2.67-0.5,4.74-0.24,6.52,1.97 c1.72,2.14,3.27,4.51,4.82,6.78c1.79,1.46,3.58,2.92,5.37,4.31c0.24,0.19-0.1,0.52-0.34,0.34c-4.81-3.72-9.61-7.43-14.42-11.15 c-2.64-2.04-5.58-4.83-9.13-4.95c-3.16-0.11-5.67,1.76-7.84,3.83c0.91-0.23,1.89-0.31,2.97-0.18c3.12,0.36,5.59,2.77,7.87,4.71 c3.81,3.26,7.61,6.52,11.41,9.78c0.23,0.2-0.1,0.53-0.34,0.34c-2.7-2.31-5.39-4.62-8.09-6.93c-2.49-2.13-4.95-4.71-7.82-6.31 c-7.17-4-11.51,2.95-14.55,8.39c1.39-1.36,2.84-2.68,4.34-3.99c0,0,0.01,0,0.01-0.01c0.02-0.02,0.05-0.04,0.09-0.05 c3.29-1.03,5.68,1,7.62,3.48c2.92,3.74,5.65,7.66,8.46,11.49c0.18,0.25-0.23,0.48-0.41,0.24c-1.9-2.58-3.8-5.17-5.7-7.75 c-2.31-3.14-5.05-8.46-9.79-7.02c-7.11,6.2-13.21,12.79-16.29,21.89c4.58,2.21,12.77-1.41,13.86-6.39c0.01-0.04,0.03-0.07,0.05-0.1 c-0.26-0.09-0.52-0.18-0.79-0.25c-0.29-0.08-0.17-0.54,0.13-0.46c11.99,3.27,9.76,22.33,9.58,31.44c-0.01,0.52-0.02,1.04-0.03,1.56 c0.07,1.74,0.07,3.46,0.01,5.15c0.14,5.84,0.81,11.65,3.13,17.08c2.9,6.8,7.94,12.38,14.27,16.16c0.26,0.16,0.02,0.57-0.24,0.41 c-0.43-0.26-0.84-0.53-1.25-0.8c2.34,11.48,4.68,22.96,7.02,34.44C132.38,362.54,135.8,382.75,141.11,402.38z M118.36,215.58 c3.22,2.23,6.33,4.72,9.4,7.23c-0.73-1.02-1.47-2.04-2.2-3.06c-0.7-0.99-1.34-2.15-2.22-2.98 C121.88,215.38,120.18,215.29,118.36,215.58z M118.3,306c-8.02-6.54-12.35-16.02-13.19-26.56c-0.98,10.05-4.09,19.53-7.88,29.16 c-3.55,9.03-7.05,18.08-10.5,27.15c4.15-5.53,9.83-9.37,15.76-12.88C108.85,319.11,116.25,313.45,118.3,306z M115.24,242.02 c-0.22,0.22,0.12,0.55,0.34,0.34c1.38-1.39,3.13-2.2,5.08-2.34c0.3-0.02,0.31-0.5,0-0.47C118.58,239.69,116.71,240.54,115.24,242.02 z M125.75,237.45c-0.24,0.18,0,0.6,0.24,0.41c1.91-1.47,4.08-2.43,6.45-2.85c0.3-0.05,0.17-0.51-0.13-0.46 C129.9,234.98,127.7,235.95,125.75,237.45z M208.83,22.98c-3.12-0.89-6.24-1.79-9.21-3.11c-7.77-3.44-19.68-0.71-25.79,4.96 c-0.88,1.44-1.73,2.91-2.53,4.41c9.27-3.93,22.76-1.19,30.96,3.97c6.22,3.91,10.23,10.32,15.37,15.4 c5.88,5.81,15.6,10.79,22.72,4.15c0.1-0.09,0.2-0.18,0.31-0.28c0.01-0.01,0.03-0.02,0.04-0.03c-2.65-4.54-5.58-8.9-8.69-13.02 c-4.33-5.75-9.33-11.51-14.98-16.47c0,0,0,0,0,0c-0.13,0.12-0.27,0.22-0.41,0.32C214.34,24.86,211.3,23.68,208.83,22.98z M253.55,238.79c-0.13,0.05-0.26,0.09-0.4,0.14c-7.12,2.45-14.93,4.16-21.38-0.76c-12.47-9.52-20.44-27.41-10.66-41.59 c5.26-7.62,13.95-13.02,17.31-21.92c3.22-8.54,1.83-20.34-4.05-27.45c-5.05-1.25-9.74-3.69-13.58-7.54 c-0.16-0.16-0.33-0.32-0.49-0.49c-0.01-0.01-0.02-0.03-0.03-0.05c-0.35-0.04-0.71-0.09-1.05-0.15c0,0-0.01,0-0.01,0 c-0.34-0.06-0.68-0.13-1.02-0.21c-0.02,0-0.03-0.01-0.05-0.01c-0.32-0.08-0.64-0.17-0.95-0.26c-0.04-0.01-0.08-0.03-0.12-0.04 c-0.29-0.09-0.58-0.19-0.86-0.3c-0.07-0.03-0.14-0.06-0.21-0.09c-0.25-0.1-0.51-0.21-0.76-0.32c-0.11-0.05-0.21-0.11-0.32-0.16 c-0.21-0.1-0.42-0.21-0.62-0.32c-0.16-0.09-0.32-0.2-0.48-0.29c-0.15-0.09-0.29-0.17-0.44-0.27c-0.3-0.2-0.6-0.42-0.9-0.64 c0,0-0.01,0-0.01-0.01c-0.11-0.08-0.29-0.07-0.36,0.08c-0.02,0.02-0.03,0.05-0.03,0.08c-0.13,0.42-0.27,0.84-0.41,1.26 c0.06,0.01,0.11,0.04,0.15,0.1c0.17,0.25,0.34,0.5,0.51,0.75c7.44,11.1,10.32,27.3,5.94,39.98c-0.1,0.29-0.56,0.16-0.46-0.13 c4.28-12.39,1.56-28.17-5.59-39.15c-0.23-0.36-0.47-0.71-0.71-1.05c0,0,0,0,0,0c-0.71,2.17-1.5,4.3-2.39,6.39 c-0.74,1.74-1.54,3.45-2.4,5.12c-1.71,3.36-3.64,6.59-5.81,9.65c-0.65,0.92-1.32,1.82-2.01,2.71c0.04,0.03,0.08,0.06,0.11,0.12 c0.05,0.11,0.09,0.22,0.13,0.33c0.78,1.94,1.37,3.91,1.71,5.92c0.07,0.41,0.13,0.82,0.18,1.23c0.26,2.2,0.22,4.44-0.21,6.72 c-1.05,5.64-2.42,11.13-3.08,16.86c-1.25,10.85-0.93,21.93,2.36,32.4c0.11,0.36,0.22,0.72,0.34,1.09c0.05,0.16-0.07,0.27-0.2,0.28 c0,0,0,0,0,0c0.01,0.13,0.04,0.26,0.06,0.39c0.05,0.35,0.09,0.7,0.16,1.04c0.03,0.14,0.07,0.28,0.1,0.42 c0.08,0.35,0.16,0.69,0.25,1.03c0.04,0.13,0.09,0.26,0.13,0.39c0.11,0.34,0.22,0.68,0.34,1c0.05,0.13,0.11,0.25,0.16,0.37 c0.14,0.32,0.27,0.65,0.43,0.96c0.06,0.12,0.13,0.24,0.2,0.36c0.16,0.3,0.32,0.61,0.51,0.9c0.08,0.12,0.16,0.23,0.24,0.35 c0.18,0.28,0.37,0.56,0.57,0.82c0.09,0.12,0.19,0.23,0.28,0.34c0.2,0.25,0.41,0.51,0.63,0.75c0.11,0.12,0.23,0.22,0.34,0.34 c0.22,0.22,0.44,0.45,0.67,0.66c0.13,0.12,0.27,0.22,0.4,0.33c0.23,0.19,0.45,0.38,0.69,0.56c0.15,0.11,0.31,0.21,0.47,0.31 c0.23,0.16,0.47,0.32,0.71,0.47c0.18,0.1,0.36,0.19,0.54,0.29c0.24,0.13,0.47,0.26,0.71,0.37c0.2,0.09,0.42,0.17,0.63,0.26 c0.23,0.09,0.46,0.2,0.7,0.28c0.24,0.08,0.49,0.14,0.73,0.21c0.22,0.06,0.44,0.14,0.67,0.19c0.27,0.06,0.55,0.1,0.83,0.15 c0.21,0.04,0.42,0.09,0.63,0.11c0.32,0.04,0.66,0.05,0.99,0.07c0.18,0.01,0.35,0.03,0.53,0.04c0.52,0.01,1.04,0,1.57-0.05 c1.19,0.78,2.47,1.45,3.82,2c0.59,0.24,1.19,0.45,1.8,0.65c0.2,0.06,0.41,0.12,0.61,0.18c0.42,0.12,0.84,0.24,1.27,0.35 c0.24,0.06,0.48,0.11,0.72,0.17c0.4,0.09,0.81,0.18,1.22,0.25c0.25,0.05,0.49,0.09,0.74,0.14c0.43,0.07,0.86,0.14,1.3,0.2 c0.22,0.03,0.44,0.07,0.66,0.09c0.63,0.08,1.27,0.15,1.9,0.2c0.18,0.02,0.37,0.03,0.55,0.04c0.47,0.04,0.93,0.07,1.4,0.1 c0.3,0.02,0.6,0.03,0.9,0.04c0.22,0.01,0.44,0.02,0.66,0.03c-0.01,0-0.03,0-0.04-0.01c-1.44-0.16-2.87-0.43-4.27-0.79 c-4.28-1.1-8.26-3.11-11.33-5.93c-5.26-4.83-8.28-10.81-9.59-17.23c-0.09-0.44-0.17-0.89-0.25-1.33 c-1.58-9.51,0.43-19.84,4.34-28.71c0.12-0.28,0.53-0.04,0.41,0.24c-3.7,8.4-5.7,18.11-4.48,27.17c0.06,0.44,0.12,0.88,0.2,1.31 c1.11,6.49,3.93,12.59,9.03,17.58c4.08,3.98,9.89,6.49,15.92,7.21C240.81,245.3,248.32,243.6,253.55,238.79z M256.44,171.3 c-0.88-4.7-2.28-9.45-4.35-13.84c1.97,6.29,1.86,13.3,0.32,19.63c-1.81,7.4-6.43,14-11.81,19.28c-2.56,2.51-5.5,4.14-8.29,6.32 c-10.43,8.17-7.94,21.41-3.43,32.28c0.02,0.04,0.02,0.07,0.02,0.1c0.88,0.82,1.78,1.61,2.71,2.36c5.86,4.72,12.87,3.75,19.53,1.66 c0.24-0.07,0.47-0.15,0.71-0.23c-1.08,0.11-2.18,0.14-3.28,0.09c-3.67-0.17-7.34-1.25-10.18-3.45c-4.8-3.7-7.03-10.39-5.83-16.26 c2.09-10.28,11.65-16.07,18.27-23.49c0.11-0.12,0.21-0.24,0.31-0.36c3.22-3.68,5.68-7.79,6.15-13.05 C257.44,178.71,257.14,175.01,256.44,171.3z M250.22,153.94c-1.23-2.08-2.64-4.05-4.27-5.85c-3.66,0.29-7.34,0.07-10.86-0.71 c4.84,6.22,6.2,15.16,4.98,22.78c-1.33,8.3-7.2,14.02-12.77,19.85c-3.17,3.32-6.32,6.83-8.21,11.07 c-2.17,4.87-2.36,10.42-1.26,15.59c1.44,6.8,5.32,12.81,10.27,17.67c-2.85-7.02-5.22-15.2-2.84-22.68 c1.38-4.34,4.36-7.67,8.02-10.27c1.4-0.99,2.93-1.83,4.28-2.89c4.54-3.56,8.29-8.43,11.15-13.4 C253.92,176.04,254.75,163.42,250.22,153.94C250.22,153.94,250.22,153.94,250.22,153.94z M265.78,205.79 c4.03-5.85,7.07-12.43,7.67-19.58c0.65-7.82-1.36-15.51-5.53-22.12c-3.89-6.17-7.55-12.86-13.16-17.66 c-2.68,0.81-5.45,1.36-8.23,1.62c0.38,0.43,0.75,0.87,1.1,1.32c0.05,0.07,0.1,0.13,0.15,0.2c0.31,0.39,0.61,0.79,0.91,1.2 c0.02,0.03,0.04,0.06,0.06,0.09c0.66,0.92,1.28,1.87,1.86,2.84c0.01,0.02,0.02,0.03,0.03,0.05c0.41,0.69,0.8,1.4,1.17,2.12 c0.01,0.01,0.01,0.02,0.02,0.03c0.73,1.41,1.39,2.87,1.97,4.36c0.02,0.05,0.04,0.11,0.06,0.16c0.56,1.44,1.06,2.91,1.5,4.39 c0.04,0.12,0.07,0.24,0.11,0.36c0.21,0.73,0.41,1.46,0.59,2.19c0,0.02,0.01,0.04,0.01,0.05c0.17,0.69,0.33,1.38,0.47,2.07 c0.04,0.17,0.07,0.34,0.11,0.52c0.15,0.71,0.28,1.41,0.4,2.12c0.44,2.53,0.68,5.05,0.73,7.55c0.03,0.04,0.05,0.08,0.05,0.14 c0.03,0.97-0.01,1.89-0.09,2.79c-0.27,5.98-1.75,11.8-4.64,17.3c-0.07,0.13-0.13,0.26-0.2,0.39c-0.04,0.07-0.09,0.1-0.15,0.11 c1.71,6.47,0.67,13.37-2.95,19.11c0.62-0.74,1.22-1.5,1.81-2.27c7.49-9.94,12.08-23.04,10.36-35.37c-0.04-0.3,0.42-0.43,0.46-0.13 c1.86,13.29-3.48,27.43-11.94,37.69c-0.21,0.26-0.42,0.51-0.64,0.76c0.5-0.21,0.99-0.44,1.47-0.69c0.7-0.35,1.38-0.74,2.05-1.16 c1.24-0.77,2.43-1.64,3.56-2.58C260.38,212.89,263.32,209.37,265.78,205.79z M225.37,54.85c-6.64-3.04-10.99-9.21-15.75-14.46 c-5.18-5.71-10.9-9.21-18.38-11.01c-6.42-1.54-14.14-2.35-20.32,0.53c-1.12,2.11-2.15,4.27-3.11,6.46 c8.81-0.96,18.09,0.97,26.02,4.85c6.75,3.3,11.63,8.46,15.43,14.6c0.03,0.02,0.07,0.04,0.09,0.08c5.87,9.05,12.09,18.38,19.33,26.4 c3.58,3.97,7.32,6.71,12.74,7.01c3.76,0.21,8.04-0.21,11.41-2.07c0.13-0.07,0.26-0.14,0.39-0.22c0.03-0.02,0.06-0.03,0.09-0.03 c-0.25-1.81-0.56-3.62-0.93-5.41c-2.12-10.03-6.23-19.73-11.44-28.72c-0.11,0.11-0.23,0.21-0.35,0.32 C236.37,57,230.46,57.18,225.37,54.85z M216.08,71.28c-4.2-10.56-9.2-21.83-19.33-27.95c-8.5-5.13-19.26-7.6-29.14-6.47 c-0.52,1.2-1.01,2.41-1.47,3.62c-0.07,0.18-0.14,0.36-0.21,0.54c0,0,0,0,0,0c0.5-0.14,1-0.26,1.49-0.37 c0.16-0.03,0.32-0.06,0.48-0.09c0.33-0.06,0.67-0.12,1-0.17c0.18-0.03,0.37-0.05,0.55-0.07c0.31-0.04,0.61-0.07,0.91-0.09 c0.19-0.01,0.37-0.03,0.56-0.04c0.3-0.02,0.6-0.02,0.91-0.02c0.17,0,0.35,0,0.52,0c0.33,0.01,0.67,0.02,1,0.05 c0.13,0.01,0.27,0.01,0.4,0.02c0.46,0.04,0.92,0.09,1.37,0.16c0.09,0.01,0.17,0.03,0.25,0.05c0.37,0.06,0.73,0.13,1.09,0.21 c0.16,0.04,0.32,0.08,0.48,0.12c0.28,0.07,0.57,0.14,0.85,0.22c0.17,0.05,0.35,0.1,0.52,0.16c0.27,0.08,0.53,0.17,0.79,0.27 c0.17,0.06,0.34,0.12,0.52,0.19c0.26,0.1,0.53,0.21,0.79,0.32c0.16,0.07,0.32,0.13,0.48,0.21c0.29,0.13,0.58,0.27,0.87,0.42 c0.12,0.06,0.24,0.12,0.36,0.18c0.4,0.21,0.79,0.42,1.18,0.65c0.14,0.08,0.28,0.17,0.42,0.26c0.25,0.15,0.5,0.31,0.75,0.47 c0.17,0.11,0.34,0.23,0.51,0.34c0.21,0.15,0.43,0.29,0.64,0.45c0.18,0.13,0.35,0.26,0.53,0.39c0.2,0.15,0.4,0.3,0.6,0.46 c0.18,0.14,0.35,0.28,0.53,0.42c0.19,0.16,0.38,0.32,0.57,0.48c0.17,0.15,0.35,0.3,0.52,0.45c0.19,0.17,0.37,0.34,0.56,0.51 c0.32,0.29,0.63,0.59,0.94,0.9c0.16,0.16,0.33,0.32,0.49,0.49c0.19,0.19,0.38,0.39,0.57,0.59c0.14,0.15,0.28,0.29,0.42,0.44 c0.19,0.21,0.38,0.42,0.56,0.63c0.13,0.14,0.26,0.29,0.38,0.44c0.19,0.22,0.38,0.44,0.56,0.67c0.11,0.14,0.23,0.28,0.34,0.41 c0.19,0.24,0.38,0.47,0.57,0.72c0.09,0.12,0.18,0.23,0.27,0.35c0.98,1.27,1.9,2.59,2.76,3.94c0.05,0.08,0.1,0.16,0.15,0.24 c0.19,0.31,0.38,0.61,0.57,0.92c0.05,0.09,0.11,0.17,0.16,0.26c0.19,0.31,0.37,0.62,0.55,0.94c0.04,0.07,0.08,0.15,0.13,0.22 c0.19,0.33,0.38,0.67,0.56,1c0,0,0,0,0,0c0.1-0.05,0.23-0.04,0.31,0.08c0.39,0.55,0.76,1.11,1.12,1.67 c4.06,6.33,6.48,13.47,8.55,20.78c2.91,7.92,5.35,16.23,10.17,23.21c5.54,8.03,13.98,14.4,23.79,15.8c0.3,0.04,0.17,0.5-0.13,0.46 c-9.35-1.33-17.28-7.1-22.95-14.48c-4.33-5.64-6.87-12.34-9.26-19.04c1.73,6.43,3.44,12.86,6.01,18.85 c3.55,8.26,8.63,15.91,16.57,20.47c7.02,4.04,16,6.17,23.72,2.94c0.11-0.05,0.23-0.08,0.34-0.14c0.02-0.01,0.05-0.01,0.07-0.02 c-1.85-7.66-2.26-15.56-2.54-23.5c-0.15,0.04-0.3,0.08-0.45,0.12C233.03,113.84,222.11,86.46,216.08,71.28z M231.28,85.56 c-4.42-3.85-7.85-8.93-11.32-13.61c-2.74-3.7-5.41-7.45-7.99-11.26c0.12,0.24,0.25,0.48,0.37,0.73c4.76,9.77,7.6,20.41,13.22,29.76 c5.94,9.89,16.27,19.72,28.63,16.29c0.13-0.04,0.26-0.07,0.4-0.11c0.02-0.01,0.04,0,0.06-0.01c-0.23-6.66-0.4-13.33-1.27-19.89 c-0.16,0.09-0.32,0.17-0.48,0.26C246.2,91.41,236.94,90.5,231.28,85.56z M171.16,14.83c1.08,3.62,1.97,7.9,1.1,11.72 c0.36-0.62,0.73-1.24,1.1-1.85c0-0.05,0.02-0.1,0.07-0.14c0.01-0.01,0.02-0.02,0.04-0.03c3.5-5.71,7.63-11.04,12.39-15.8 c0.22-0.22,0.55,0.12,0.34,0.34c-4.39,4.38-8.23,9.24-11.54,14.45c5.49-4.34,13.61-6.04,20.39-5.33c3.13,0.33,5.72,1.8,8.67,2.76 c2.96,0.96,9.45,3.88,12.53,1.99c0.15-0.09,0.3-0.19,0.43-0.3c-6.81-5.9-14.55-10.62-23.19-12.73c-9.83-2.71-19.52-6.07-29.51-8.14 c0.22,0.2,0.43,0.4,0.64,0.62C167.88,5.71,169.85,10.45,171.16,14.83z M83,176.9c5.12-6.88,12.64-11.67,19.8-16.19 c0.13-0.08,0.27-0.17,0.4-0.26c0,0,0,0,0.01,0c0,0,0,0,0,0c-0.45-0.73-0.89-1.46-1.32-2.2c-0.04-0.07-0.08-0.13-0.12-0.2 c-0.67-1.17-1.31-2.36-1.92-3.56c-1.35-2.64-2.58-5.34-3.64-8.1c-0.06-0.16-0.12-0.32-0.18-0.47c-0.27-0.7-0.52-1.41-0.77-2.12 c-0.06-0.17-0.12-0.34-0.18-0.52c-0.25-0.73-0.5-1.47-0.73-2.21c0,0,0,0,0,0c-0.13,0.12-0.26,0.23-0.38,0.35 c-8.36,7.55-17.08,15.58-20.93,26.46c-1.75,4.96-2.42,10.33-1.42,15.52c0.91,4.72,3.54,8.66,6.12,12.61 c0.49,0.74,0.96,1.5,1.41,2.26C76.79,190.98,78.32,183.18,83,176.9z M256.9,131.96c0.14-0.06,0.27-0.1,0.41-0.16 c0.57,2.3,1.28,4.59,2.15,6.84c5.88,15.13,22.41,26.42,22.59,43.65c0.17,15.71-12.11,26.01-24.61,33.65 c0.56-0.48,1.12-0.97,1.65-1.48c2.08-1.97,3.96-4.16,5.66-6.41c4.38-5.81,7.92-12.53,8.95-19.81c1.1-7.74-0.41-15.86-4.3-22.65 c-3.86-6.73-8.19-14.17-14.1-19.31c2.11-0.67,4.17-1.49,6.13-2.47c0.04-0.02,0.08-0.04,0.12-0.06c0.27-0.14,0.03-0.55-0.24-0.41 c-0.03,0.02-0.06,0.03-0.1,0.05c-8.1,4.03-17.87,5.53-26.59,3.41c-0.04-0.01-0.07-0.02-0.11-0.03c-4.72-1.16-9.13-3.39-12.8-6.84 c-0.36-0.34-0.72-0.7-1.07-1.06c-0.11-0.12-0.25-0.08-0.33,0.01c-2.93-2.52-4.8-6.43-6.05-10.3c-0.01-0.03-0.02-0.05-0.02-0.08 c-0.09-0.29-0.19-0.59-0.27-0.88c-0.02-0.06-0.04-0.13-0.05-0.19c-0.08-0.26-0.15-0.51-0.22-0.77c-0.03-0.12-0.06-0.24-0.1-0.37 c-0.05-0.2-0.11-0.39-0.15-0.58c-0.08-0.32-0.16-0.63-0.23-0.94c-1.92-8.09-2.91-16.39-3.98-24.67c-1.92-0.75-3.71-1.75-5.54-2.7 c-1.24-0.64-2.48-1.26-3.8-1.74c-0.66-0.25-1.34-0.47-2.01-0.69c3.17,2.52,5.2,6.4,5.2,10.76c0,7.59-6.15,13.74-13.74,13.74 c-7.59,0-13.74-6.15-13.74-13.74c0-6.59,4.64-12.09,10.82-13.42c0.01,0,0.02,0,0.02-0.01c-0.11-0.01-0.22-0.02-0.32-0.03 c-0.22-0.02-0.44-0.04-0.65-0.05c-0.27-0.02-0.54-0.03-0.81-0.05c-0.21-0.01-0.42-0.02-0.63-0.02c-0.3-0.01-0.59,0-0.89,0 c-0.17,0-0.35,0-0.52,0.01c-0.45,0.02-0.9,0.05-1.34,0.09c-0.14,0.01-0.29,0.04-0.43,0.06c-0.31,0.04-0.62,0.08-0.93,0.13 c-0.18,0.03-0.35,0.07-0.53,0.1c-0.27,0.05-0.54,0.11-0.81,0.18c-0.18,0.04-0.36,0.09-0.54,0.14c-0.26,0.07-0.53,0.16-0.78,0.24 c-0.17,0.06-0.34,0.11-0.51,0.17c-0.28,0.1-0.56,0.22-0.84,0.34c-0.14,0.06-0.28,0.11-0.41,0.18c-0.4,0.19-0.8,0.39-1.19,0.62 c-0.07,0.04-0.13,0.09-0.2,0.13c-0.33,0.19-0.65,0.4-0.96,0.62c-0.13,0.09-0.26,0.19-0.39,0.29c-0.25,0.18-0.49,0.37-0.73,0.57 c-0.14,0.12-0.28,0.24-0.41,0.36c-0.23,0.2-0.45,0.42-0.67,0.64c-0.13,0.13-0.26,0.26-0.39,0.4c-0.23,0.25-0.46,0.51-0.68,0.78 c-0.11,0.13-0.21,0.25-0.32,0.38c-0.32,0.41-0.64,0.83-0.94,1.28c-0.08,0.13-0.23,0.13-0.33,0.07c-0.1-0.06-0.17-0.18-0.08-0.31 c8.55-13.92,26.81-9.27,40.06-6.56c-0.66-4.55-1.43-9.07-2.49-13.52c-10.03-1.02-20.09-1.81-30.16-2.22 c-0.19-0.01-0.34-0.27-0.17-0.4c8.02-6.33,19.47-4.68,28.86-2.87c-0.7-2.33-1.49-4.63-2.42-6.9c-0.25-0.63-0.53-1.26-0.81-1.9 c-0.05-0.1-0.09-0.21-0.14-0.31c-0.3-0.65-0.6-1.31-0.93-1.97c0,0,0,0,0,0c0.86,1.37,1.64,2.78,2.35,4.22 c2.08,4.23,3.6,8.73,4.93,13.28c0,0.03,0,0.05,0.01,0.08c0.02,0.04,0.03,0.08,0.04,0.12c0.71,2.43,1.37,4.87,2.03,7.28 c2.47,8.99,5.04,18.17,9.62,26.36C226.01,126.87,242.1,138.1,256.9,131.96z M187.63,108.55c0-1.96-1.59-3.55-3.55-3.55 c-1.96,0-3.55,1.59-3.55,3.55c0,1.96,1.59,3.55,3.55,3.55C186.04,112.1,187.63,110.51,187.63,108.55z M194.43,96.86 c-3.7,0-6.71,3-6.71,6.71c0,3.7,3,6.71,6.71,6.71s6.71-3,6.71-6.71C201.14,99.86,198.14,96.86,194.43,96.86z M72.48,87.67 c0.28,0.09,0.56,0.16,0.83,0.24c0.55,0.16,1.11,0.32,1.67,0.46c0.34,0.08,0.68,0.15,1.01,0.23c0.5,0.11,1.01,0.23,1.52,0.32 c0.37,0.07,0.73,0.13,1.1,0.19c0.48,0.08,0.97,0.16,1.46,0.22c0.38,0.05,0.76,0.09,1.15,0.14c0.47,0.05,0.95,0.1,1.43,0.14 c0.39,0.03,0.79,0.06,1.18,0.08c0.47,0.03,0.93,0.04,1.4,0.06c0.4,0.01,0.8,0.02,1.2,0.02c0.46,0,0.92-0.01,1.39-0.02 c0.4-0.01,0.81-0.02,1.21-0.04c0.46-0.02,0.91-0.06,1.37-0.09c0.41-0.03,0.81-0.06,1.22-0.1c0.45-0.05,0.9-0.11,1.36-0.17 c0.41-0.05,0.81-0.1,1.22-0.16c0.46-0.07,0.91-0.16,1.36-0.24c0.39-0.07,0.79-0.14,1.18-0.22c0.73-0.15,1.45-0.32,2.17-0.51 c0.51-0.13,1.01-0.27,1.51-0.42c0.4-0.12,0.81-0.22,1.21-0.35c0.43-0.14,0.86-0.29,1.28-0.44c0.38-0.13,0.77-0.26,1.15-0.4 c0.43-0.16,0.85-0.33,1.27-0.5c0.37-0.15,0.75-0.3,1.11-0.46c0.42-0.18,0.83-0.37,1.25-0.56c0.24-0.11,0.49-0.23,0.73-0.35 c1.09-0.53,2.17-1.08,3.21-1.69c0.01-0.01,0.02-0.01,0.03-0.02c-1.43,0.63-2.91,1.15-4.39,1.59c-0.21,0.06-0.43,0.12-0.64,0.18 c-0.51,0.14-1.03,0.28-1.54,0.4c-0.21,0.05-0.42,0.1-0.63,0.15c-0.7,0.15-1.39,0.29-2.08,0.41c-7.42,1.22-15.46-2.07-21.81-5.65 c-0.27-0.15-0.03-0.56,0.24-0.41c6.51,3.68,14.7,6.91,22.29,5.44c4.48-0.87,9.16-2.51,13.08-5.1c1.66-1.24,3.23-2.59,4.7-4.04 c0.21-0.24,0.43-0.48,0.63-0.73c0.06-0.07,0.12-0.09,0.19-0.07c2.05-2.13,3.89-4.48,5.48-7.02c0.77-1.23,1.47-2.51,2.12-3.83 c0.07-0.14,0.2-0.15,0.31-0.08c0.35-0.71,0.71-1.42,1.07-2.13c0.04-0.07,0.08-0.15,0.11-0.22c0.32-0.64,0.65-1.27,0.99-1.9 c0.08-0.14,0.16-0.28,0.23-0.43c0.3-0.56,0.61-1.12,0.92-1.68c0.11-0.2,0.23-0.39,0.34-0.58c0.29-0.5,0.57-1,0.87-1.49 c0.15-0.26,0.31-0.5,0.47-0.76c0.26-0.43,0.52-0.86,0.8-1.28c0.2-0.31,0.41-0.61,0.62-0.92c0.24-0.36,0.48-0.73,0.73-1.08 c0.27-0.38,0.55-0.75,0.82-1.13c0.2-0.27,0.4-0.55,0.6-0.83c0.49-0.64,0.99-1.28,1.52-1.9c0.21-0.25,0.41-0.49,0.63-0.73 c0.09-0.11,0.19-0.21,0.28-0.31c0.12-0.14,0.24-0.28,0.37-0.41c0.15-0.16,0.3-0.32,0.45-0.48c0.07-0.07,0.14-0.15,0.21-0.22 c0.18-0.19,0.36-0.37,0.54-0.56c0.05-0.05,0.09-0.09,0.13-0.14c0.2-0.21,0.41-0.41,0.62-0.61c0.02-0.02,0.05-0.05,0.07-0.07 c0.23-0.22,0.47-0.44,0.7-0.65c0,0,0,0,0,0c5.61-5.09,12.59-8.21,19.55-4.37c0.75,0.41,1.5,0.89,2.25,1.47c0,0,0,0,0,0 c0.06-0.15,0.12-0.3,0.18-0.45c0.27-0.71,0.56-1.42,0.85-2.13c-13.12-4.81-29.89-6.07-43.08-0.16c-2.78,1.74-5.56,3.48-8.37,5.16 c-6.01,4.83-10.91,11.09-16.99,15.83c-5.67,4.42-11.4,9.83-18.87,6.93c-0.14-0.06-0.29-0.11-0.43-0.17 c-2.46,7.18-5.67,14.1-9.2,20.82c0.15,0.06,0.3,0.11,0.45,0.16C70.83,87.13,71.65,87.41,72.48,87.67z M150.66,6.45 c4.01,1.24,7.55,3.4,10.37,6.53c5.16,5.73,8.31,15.54,6.33,23.27c0.96-2.21,2.01-4.39,3.13-6.52c0-0.06,0.02-0.12,0.09-0.17 c0.16-0.29,0.31-0.58,0.47-0.87c0-0.03,0.01-0.06,0.02-0.09c2.05-4.42,0.78-10.03-0.63-14.45c-1.36-4.26-3.38-8.84-6.71-11.96 c-0.13-0.12-0.26-0.24-0.39-0.36c-0.07-0.06-0.09-0.14-0.07-0.21c-1-0.2-1.99-0.39-3-0.56c-7.67-1.31-15.34-1.44-22.91-0.22 c0.15,0.15,0.3,0.29,0.46,0.43C141.42,4.49,146.17,5.06,150.66,6.45z" fill="inherit"/></g></svg>