<?xml version="1.0" encoding="UTF-8" standalone="no"?><svg xmlns="http://www.w3.org/2000/svg" xmlns:xlink="http://www.w3.org/1999/xlink" fill="#000000" height="46.8" preserveAspectRatio="xMidYMid meet" version="1" viewBox="-1.3 -1.6 54.7 46.8" width="54.7" zoomAndPan="magnify"><g fill="#000000" fill-rule="evenodd" id="change1_1"><path d="M 25.949219 37.945312 L 26.199219 37.945312 C 26.199219 23.027344 28.617188 21.945312 42.199219 21.945312 L 42.199219 21.695312 C 28.617188 21.695312 26.199219 20.609375 26.199219 5.695312 L 25.949219 5.695312 C 25.949219 20.609375 23.53125 21.695312 9.949219 21.695312 L 9.949219 21.945312 C 23.53125 21.945312 25.949219 23.027344 25.949219 37.945312"/><path d="M 21.71875 2.121094 C 7.933594 -1.601562 -1.292969 4.203125 1.117188 15.082031 C 3.523438 25.960938 16.648438 37.796875 30.429688 41.519531 C 44.214844 45.242188 53.4375 39.441406 51.03125 28.558594 C 48.625 17.679688 35.5 5.84375 21.71875 2.121094 Z M 21.851562 2.730469 C 8.492188 -0.875 -0.445312 4.746094 1.886719 15.289062 C 4.21875 25.832031 16.9375 37.300781 30.296875 40.910156 C 43.652344 44.515625 52.59375 38.894531 50.261719 28.351562 C 47.929688 17.808594 35.210938 6.339844 21.851562 2.730469"/></g></svg>