<?xml version="1.0" encoding="UTF-8"?><svg xmlns="http://www.w3.org/2000/svg" xmlns:xlink="http://www.w3.org/1999/xlink" height="466.7" preserveAspectRatio="xMidYMid meet" version="1.0" viewBox="-0.0 -0.7 466.1 466.7" width="466.1" zoomAndPan="magnify"><g id="change1_1"><path clip-rule="evenodd" d="M439.9,222.7c0-93.4-0.2-179.9-0.2-181h-0.6c0-13.1,0-20.7,0-20.7 c-0.1-0.3-10.6-0.6-28.2-0.7C408.9,7.5,407.9,0,407.9,0c-0.4-0.7-67.2,8.5-146.6,19.7c-9.7,0-19.6,0-29.4,0 c-102,0-203.5,0.2-204.7,0.2v1.6c0,0.9,0,11.3-0.1,28.3c0,1.1,0,2.3-0.1,3.6c-16.6,2.4-26.6,3.9-27,3.9l0.2,1.6 c0.4,2.7,12.8,91.6,26,185.6c0,39.3,0,78.7,0.1,112.5c-0.1,43.7-0.1,74,0,75.2c0,0,0,0,0.1,0c0,13,0,20.5,0,20.5 c0.1,0.3,11,0.5,29.3,0.6c1.1,7.4,1.7,11.7,1.8,12.1c0.1,0.6,37.7-4.5,90-11.8c26.8,0,55.8,0.1,84.9,0.1c103,0,206.1-0.2,206.1-0.2 c0.4-0.2,0.7-16.1,0.9-41.6c16.3-2.4,25.9-3.8,25.9-3.8C466.1,407.7,453.5,318,439.9,222.7z M436.6,431c-60.6,0-100.9,0.1-130.1,0.1 c52.5-7.5,100.8-14.5,130.1-18.8C436.6,418.4,436.6,424.6,436.6,431z M231.9,431.2c-31.7,0-63.8,0.1-177.6,0.2 C37.2,313,33.6,287.5,28.5,252.7c0-35.2-0.1-64.5-0.2-196.2c43-6.2,74.2-10.7,98-14.1c58.5-0.1,82.4-0.1,106.2-0.1 c32-0.1,63.7-0.2,178.7-0.5C428,159,431.2,181.4,436.5,217.9c0,36.1,0,62.7,0.1,192.2c-80,11.5-119,17.1-146.1,21 C264,431.1,248,431.2,231.9,431.2z M274.6,433.4c-14.1,2-26.2,3.8-42.6,6.1l-80.2,11.5l-94.7,0.1c-0.9-6.3-1.8-12.4-2.6-18.3 c37.5,0.4,107.4,0.5,177.4,0.5C246.2,433.4,260.6,433.4,274.6,433.4z M28.3,42.5c29.3,0,53.8-0.1,74.7-0.1 c-30.1,4.3-56.2,8.1-74.7,10.8C28.3,49.7,28.3,46.1,28.3,42.5z M28.5,260.5c9.3,66,18.6,132.1,24.1,170.8c-7.6,0-15.6,0-24,0 C28.6,328.2,28.5,289.9,28.5,260.5z M136.6,40.9c47.9-6.9,63.6-9.1,95.4-13.7l29.2-4.2L408.5,23c0.9,6.5,1.8,12.7,2.7,18.7 c-37.3-0.1-108-0.3-178.6-0.5C199.4,41.1,166.3,41,136.6,40.9z M436.5,198.6c-8.5-59.7-17.1-118.8-22.6-156.8c7.2,0,14.6,0,22.5-0.1 C436.4,129.2,436.4,170.2,436.5,198.6z M436.4,22.9c0,6.5,0,12.7,0,18.8c-3.3,0-11.2,0-22.5-0.1c-1-7-1.9-13.3-2.7-18.7L436.4,22.9z M405.5,2.3c0.9,6.2,1.7,12.2,2.6,18c-28.7-0.3-74.4-0.4-124.3-0.5L405.5,2.3z M27.2,23.2l204.7-0.1l6.3,0c-2.1,0.3-4.1,0.6-6.2,0.9 c-40.1,5.7-81.7,11.7-118.3,17c-49.5-0.1-84.9-0.1-86.1,0c-0.1,0-0.2,1.3-0.3,3.8C27.2,37.8,27.2,30.6,27.2,23.2z M0.5,60.5 c9.3-1.3,18.1-2.6,26.5-3.8c-0.5,31.4-0.7,105.1-0.7,180.6C21.9,207.2,15.5,163.4,0.5,60.5z M28.6,451.2c0-6.5,0-12.7,0-18.8 c3.8,0.2,12.3,0.3,24.2,0.5c1,7.1,1.9,13.3,2.6,18.3L28.6,451.2z M59.1,464.4c-0.5-3.8-1.1-7.5-1.6-11.1c19.2,0.2,45.9,0.3,76.4,0.3 L59.1,464.4z M232.5,451l-66.3,0c20.6-2.9,42.9-6.1,65.7-9.3c19.4-2.8,39.2-5.6,58.6-8.4c73.3,0,135.9-0.2,146.1-0.2 c0,5.7,0,11.6,0,17.7L232.5,451z M439.5,409.7c0.3-40.8,0.4-104.7,0.4-167.9c4.3,30,10.8,74.9,23.6,164.4 C455.1,407.4,447.1,408.6,439.5,409.7z" fill="#231F20" fill-rule="evenodd"/></g></svg>